<?xml version="1.0" encoding="utf-8"?>
<!-- Generator: Adobe Illustrator 25.2.1, SVG Export Plug-In . SVG Version: 6.00 Build 0)  -->
<svg version="1.1" id="Layer_1" xmlns="http://www.w3.org/2000/svg" xmlns:xlink="http://www.w3.org/1999/xlink" x="0px" y="0px"
	 viewBox="0 0 2767 802" style="enable-background:new 0 0 2767 802;" xml:space="preserve">
<style type="text/css">
	.st0{fill:#F5C200;}
	.st1{fill:#13436A;}
	.st2{fill:#164269;}
	.st3{fill:#0E426C;}
	.st4{fill:#0F4372;}
	.st5{fill:#396489;}
	.st6{fill:#608CB0;}
	.st7{fill:#486D8D;}
	.st8{fill:#194160;}
	.st9{fill:#174266;}
	.st10{fill:#0F4471;}
	.st11{fill:#164771;}
	.st12{fill:#184061;}
	.st13{fill:#1C3E5B;}
	.st14{fill:#0F426E;}
	.st15{fill:#1B3F61;}
	.st16{fill:#0D4471;}
	.st17{fill:#1D3F5A;}
	.st18{fill:#1D3E5A;}
	.st19{fill:#1C3E59;}
	.st20{fill:#0F4470;}
	.st21{fill:#0E4472;}
	.st22{fill:#0E4371;}
	.st23{fill:#0E4471;}
	.st24{fill:#154166;}
	.st25{fill:#0C4673;}
	.st26{fill:#10446F;}
	.st27{fill:#103F67;}
</style>
<g>
	<path class="st0" d="M1,695.98c2-0.06,3.99-0.18,5.99-0.18c812.53-0.01,1625.06-0.01,2437.59-0.01c10.57,0,10.58,0,10.57,10.72
		c-0.04,31.83-0.1,63.65-0.15,95.48c-816.34,0-1632.68,0-2449.02,0.12c-4.29,0-5.12-0.96-5.09-5.14C1.09,763.31,1,729.64,1,695.98z"
		/>
	<path class="st1" d="M2502,801.98c0.02-32.83,0.05-65.66,0.07-98.49c0-7.73,0-7.64,7.98-7.75c16.16-0.22,32.34,0.78,48.47-0.56
		c47.25-3.93,85.55-36.95,96.44-83.12c1.25-5.31,1.94-10.76,2.89-16.14c1.62-1.55,0.94-3.76,1.6-5.59
		c0.29-18.66,0.1-37.32,0.11-55.97c0.03-48.64,0.01-97.27,0.02-145.91c0-3.33,0.01-6.66-0.55-9.94c-0.37-1.07,0.75-2.7-1.16-3.25
		c-1.65-8.63-2.92-17.31-5.87-25.68c-14.69-41.67-56.56-73.83-108.31-68.53c-43.74,4.47-81.26,37.18-90.37,83.45
		c-12.14,61.64,31.97,120.98,94.77,127.68c1.65,0.18,3.28,0.55,4.91,0.83c0.5,0.4,1.07,0.67,1.69,0.83
		c15.95,1.27,31.92,0.5,47.88,0.72c6.97,0.09,7.41,0.5,7.42,7.34c0.01,27.95,0.01,55.91,0,83.86c0,6.7-0.02,6.7-6.96,6.7
		c-15.25,0-30.51,0-45.76,0.02c15.64,0.01,31.27-0.02,46.91,0.06c1.67,0.01,3.7-0.97,5.01,1.04c-1.42,2.05-3.6,1.36-5.48,1.36
		c-14.28,0.06-28.55,0.03-39.5,0.03c12.72-0.23,28.76,0.38,44.81-0.26c0.71-0.12,1.17,0.16,1.4,0.83c-0.3,3.57-3.02,2.89-5.23,2.9
		c-19.56,0.03-39.12,0.01-58.69,0.03c-1.82,0-3.65-0.19-5.45,0.2c-36.84-2.15-70.91-13.15-101.57-33.54
		c-57.23-38.05-89.98-91.61-97.1-159.91c-11.46-109.92,64.22-211.37,172.17-232.04c107.15-20.51,212.91,43.86,244.33,148.72
		c4.07,13.58,6.83,27.41,8.14,41.53c0.08,0.91-0.3,2.06,0.98,2.54c0,76,0,152,0,228c-0.82,2.33-0.82,4.67,0,7c0,2.33,0,4.67,0,7
		c-1.37,11.19-2.49,22.38-5.42,33.36c-8.68,32.59-23.67,61.79-45.79,87.3c-32.84,37.89-73.85,61.57-123.09,71.08
		c-6.86,1.32-13.86,1.05-20.71,2.26c-2,0-4,0-6,0c-1.67-0.81-3.33-0.81-5,0C2542,801.98,2522,801.98,2502,801.98z"/>
	<path class="st1" d="M160.98,178.18c26.64,0.16,53.34-1.69,79.89,1.63c46.46,5.8,86.67,25.12,120.42,57.42
		c36.15,34.6,57.54,77.05,64.51,126.55c15.75,111.81-59.25,217.82-169.55,240.03C142.3,626.76,29.13,552.09,5.86,438.65
		c-1.67-8.16-3.07-16.34-3.86-24.63c-0.08-0.81,0-1.69-1-2.04c0-1,0-2,0-3c0.82-2,0.82-4,0-6C1,270.11,1.02,137.24,0.89,4.37
		c0-3.99,1.16-4.49,4.71-4.47C40.73,0.04,75.87-0.02,111-0.02c0.02,49.82,0.06,99.64,0.07,149.45
		c0.01,80.98-0.03,161.95,0.01,242.93c0.02,51.76,36.37,94.77,87.24,103.36c52.18,8.81,104.27-26.26,116.47-78.4
		c13.29-56.79-21.35-112.64-78.06-125.79c-7.64-1.77-15.41-2.57-23.28-2.56c-17.49,0.01-34.98-0.09-52.47-0.15
		c-3.19-0.55-2.44-3.04-2.45-5.09c-0.02-22.83-0.01-45.66-0.01-68.49c0-10.83,0-21.66,0-32.5
		C158.51,180.77,158.08,178.58,160.98,178.18z"/>
	<path class="st1" d="M1833-0.02c-0.05,2-0.16,3.99-0.16,5.99c-0.01,127.66-0.07,255.32,0.03,382.99
		c0.03,41.22-9.28,79.96-30.97,115.13c-35.16,57.01-86.02,91.35-152.28,101.59c-105.91,16.37-210.38-53.55-236.57-157.6
		c-24.48-97.3,17.08-195.04,103.8-243.61c29.71-16.64,61.79-25.32,95.8-26.26c19.65-0.54,39.33-0.09,58.99-0.28
		c3.31-0.03,4.21,0.91,4.2,4.17c-0.11,34.17-0.11,68.33,0.01,102.5c0.01,3.45-0.85,4.51-4.41,4.47c-17.33-0.19-34.67-0.16-52-0.06
		c-58.74,0.34-105.15,48.62-103.31,107.39c1.81,57.77,50.47,102.95,108.19,100.46c54.01-2.33,96.22-46.32,98.27-102.42
		c0.1-2.66,0.1-5.33,0.1-8c0-126.66,0-253.32,0.02-379.99c0-2.16,0.19-4.31,0.29-6.47c0.33,0,0.67,0,1,0
		c2.14,2.62,1.39,5.74,1.39,8.67c0.04,85.17,0.02,170.33,0.04,255.5c0.01,44.67-0.07,89.33,0.05,133.98
		c-0.03,1.38,0.27,2.79,0.02,3.66c-0.29-1.45,0.97-2.89,1.67-4.58c0.77-2.47,0.41-4.98,0.41-7.46
		c0.02-126.87,0.01-253.74,0.05-380.62c0-3.08-0.83-6.38,1.39-9.16C1763.67-0.02,1798.33-0.02,1833-0.02z"/>
	<path class="st2" d="M1728,399.98c-2.9-0.12-0.73,2.46-1.69,3.38c-1.52-0.78-1.24-2.15-1.31-3.38c-0.92-1.73-0.46-3.6-0.46-5.4
		c-0.02-129.73-0.02-259.47,0-389.2c0-1.8-0.46-3.67,0.46-5.4c1,0,2,0,3,0c0.92,1.73,0.46,3.6,0.46,5.4
		c0.02,129.73,0.02,259.47,0,389.2C1728.46,396.38,1728.92,398.25,1728,399.98z"/>
	<path class="st3" d="M1725-0.02c0,133.33,0,266.67,0,400c-1.8-1.82-0.96-4.12-0.96-6.18C1724,262.53,1724,131.26,1724-0.02
		C1724.33-0.02,1724.67-0.02,1725-0.02z"/>
	<path class="st4" d="M1728,399.98c0-133.33,0-266.67,0-400c0.33,0,0.67,0,1,0c0,131.27,0,262.54-0.04,393.82
		C1728.96,395.86,1729.8,398.16,1728,399.98z"/>
	<path class="st5" d="M2768,600.98c-1.72-2.33-1.5-4.67,0-7C2768,596.32,2768,598.65,2768,600.98z"/>
	<path class="st6" d="M1,402.98c1.29,2,1.79,4,0,6C1,406.98,1,404.98,1,402.98z"/>
	<path class="st7" d="M2562,801.98c1.67-1.33,3.33-1.58,5,0C2565.33,801.98,2563.67,801.98,2562,801.98z"/>
	<path class="st1" d="M731.9,495.96c0.07,30.49,0.13,60.97,0.2,91.46c0.01,3-0.02,6,0.03,9c0.03,1.66-0.11,2.84-2.34,2.79
		c-36.03-0.79-72.46,3.49-107.78-6.95c-83.68-24.74-136.28-79.74-154.87-164.9c-21.47-98.3,30.68-198.71,122.16-239.44
		c104.75-46.64,227.42-1.92,277.83,101.24c14.25,29.16,21.87,59.92,21.94,92.39c0.14,69.15,0.05,138.3,0.04,207.45
		c0,0.99-0.13,1.99-0.2,2.98c-2.27,2-5.04,1.38-7.64,1.39c-29.43,0.04-58.86,0.02-88.29,0.04c-2.15,0-4.33-0.21-6.43,0.33
		c-1.51,0.78-1.59,1.69-0.02,2.38c1.72,0.76,3.61,0.43,5.43,0.43c29.93,0.02,59.87,0,89.8,0.04c2.44,0,5.04-0.54,7.14,1.38
		c-0.46,2.05-2.14,1.18-3.24,1.18c-34.56,0.04-69.12,0.03-103.68,0.01c-0.32,0-0.65-0.13-0.97-0.2c-1.48-0.79-1.91-2.09-2.09-3.7
		c-0.26-2.33-0.32-4.64-0.32-6.97c0-66.57,0-133.15,0-199.72c0-3.49,0.05-6.94,0.85-10.41c0.71-3.09,0.46-6.3-1.28-9.17
		c-4.39-25.13-15.36-46.79-35.01-63.3c-29.74-24.98-63.72-32.01-100.41-19.5c-36.68,12.52-59.76,38.82-67.64,76.76
		c-12.68,61.04,27.28,118.18,89.04,128.71c5.55,0.95,11.26,0.99,16.9,1.45c15.25,0.84,30.52,0.12,45.77,0.37
		C728.87,493.54,731.31,492.85,731.9,495.96z"/>
	<path class="st1" d="M2299.36,595.85c1.6,1.69,1.45,2.9-1.01,3.3c-0.98,0.16-2,0.05-2.99,0.05c-33.32,0-66.65-0.11-99.97,0.13
		c-4.69,0.03-5.34-1.46-5.33-5.62c0.13-69.65,0.19-139.29,0.06-208.94c-0.09-48.52-32-89.7-78.02-101.19
		c-59.92-14.96-119.43,25.71-127.29,87.01c-7.52,58.63,32.42,111.95,90.82,121.14c4.43,0.7,8.94,0.93,13.41,1.38
		c14.25,0.87,28.52,0.13,42.77,0.42c1.91,0.04,4.02-0.73,5.7,0.9c0.36,0.55,0.6,1.14,0.74,1.78c0.35,30.33,0.08,60.66,0.16,90.99
		c0.01,4.08-1.63,5.41-5.74,5.35c-15.44-0.21-30.88-0.09-46.33-0.07c15.43,0.01,30.86-0.01,46.29,0.05
		c1.52,0.01,3.38-0.86,4.54,1.01c-1.23,2.18-3.4,1.81-5.31,1.8c-14.77-0.15-29.54,0.5-44.3-0.34c-2.92-0.17-5.85-0.05-8.73,0.59
		c3.41-0.67,6.84-0.77,10.3-0.47c13.78,0.99,27.58,0.16,41.36,0.46c2.45,0.05,5.02-0.51,7.26,1.06c0.32,3.15-2.16,1.74-3.28,1.75
		c-11.13,0.12-22.26,0.07-33.39,0.07c-4.65,0-9.31-0.14-13.95,0.03c-15.11,0.55-29.88-1.94-44.62-4.76
		c-1.64-0.31-3.34,0.04-4.91-0.64c-10.59-1.63-20.65-5.18-30.37-9.41c-69.63-30.28-113.93-82.27-129.04-156.75
		c-20.77-102.33,32.74-201.65,128.16-241.58c97.85-40.95,214.21-0.5,265.9,92.29c12.68,22.76,21.2,46.88,25.49,72.54
		c0.3,1.79,0.25,3.64,0.36,5.47c0.21,6.3,1.39,12.52,1.39,18.84c-0.01,70.81,0,141.62-0.05,212.43c0,2.13,1.12,4.84-1.93,6.09
		c-2.29,0.59-4.62,0.37-6.94,0.38c-30.09,0.02-60.19-0.02-90.28,0.08c-1.88,0.01-4.91-1.49-5.25,2.34c1.36,0.99,2.9,0.74,4.38,0.74
		c30.8,0.02,61.61,0.03,92.41,0.01c1.33,0,2.67,0.01,3.96-0.41C2296.94,595.67,2298.11,595.27,2299.36,595.85z"/>
	<path class="st1" d="M1254.89,375.24c-1.91-12.34-4.63-24.43-10.05-35.83c-19.18-40.33-63.07-64.32-106.64-58.16
		c-45.51,6.43-81.43,41.51-88.24,86.25c-0.8,5.25-1.21,10.56-1.8,15.84c-1.77-1.66,0.33-4.11-1.04-5.72
		c0.58,1.43,0.69,2.95-0.21,4.46c-2.27-0.51-0.7,2.05-1.91,2.4c-0.83,0.68-1.63,1.39-2.08,2.4c-0.88,2.27-0.49,4.63-0.49,6.93
		c-0.02,63.35-0.01,126.7-0.05,190.05c0,2.78,0.59,5.68-1.07,8.27c-1.85,1.53-4.08,1.24-6.22,1.25c-27.81,0.03-55.62,0.04-83.43,0
		c-7.25-0.01-8.07-0.82-8.07-8.04c-0.03-65.28-0.07-130.56,0.07-195.84c0.01-5.44,1.26-10.87,0.82-15.47
		c-0.01,2.15-0.01,5.21,0.01,8.24c-0.06,0.6,0.18,1.4-0.59,1.66c-1.06,0.36-1.46-0.55-1.71-1.27c-0.95-2.78-0.4-5.63-0.21-7.78
		c0-0.02-0.1,0.63-0.23,1.28c-0.47,1.63-0.41,3.35-1,4.95c-0.56,2.64-0.32,5.31-0.32,7.97c-0.03,66.86,0.02,133.73-0.03,200.57
		c0.06,1.29-0.79,3.2,1.96,2.6c1.01-0.22,1.92,0.35,2.58,1.18c0.24,0.4,0.35,0.85,0.34,1.31c-0.22,0.41-0.55,0.71-0.96,0.91
		c-1.87,0.01-1.02,1.33-1.05,2.23c-0.54,0.82-1.66,0.36-2.26,1.05c-1.39,0.24-2.76,0.45-2.77-1.64c-0.01-1.83-0.01-3.67-0.01-5.5
		c0-68.49-0.04-136.98,0.01-205.47c0.03-45.93,12.35-88.24,39.11-125.69c37.22-52.07,87.72-82.73,151.56-89.77
		c110.68-12.21,211.13,62.87,232.29,172.96c2.23,11.62,3.77,23.32,3.62,35.19c-0.63,1.96-0.31,3.97-0.31,5.95
		c-0.02,67.44-0.02,134.88-0.02,202.32c0,1.83,0.12,3.66-0.12,5.49c-2.05,4-5.56,4.65-9.67,4.65c-32.47-0.01-64.93-0.15-97.4,0.05
		c-1.81-0.32-1.97-1.44-1.41-2.9c0.96-2.99,3.49-2.05,5.48-2.05c31.73-0.05,63.47-0.03,95.2-0.07c0.67-0.09-0.42-0.87-0.05-0.31
		c0.15,0.23,0.04,0.37-0.34,0.37c-31.83-0.1-63.66-0.06-95.49,0.02c-3.53,0.01-4.9-1.18-4.69-4.6c0.11-1.82,0.01-3.66,0.01-5.5
		c-0.03-65.66,0.07-131.32-0.05-196.97C1254.85,382.15,1256.35,378.54,1254.89,375.24z"/>
	<path class="st2" d="M2137,495.98c0-0.34,0-0.68,0.01-1.02c2.51-2.62,4.51-2.24,6.03,1.02c0.09,9.99,0.23,19.98,0.25,29.97
		c0.04,22.83-0.02,45.66,0.09,68.48c0.02,3.35-0.38,4.96-4.48,4.89c-21.16-0.32-42.33,0.04-63.48-0.48
		c-12.77-0.32-25.49-1.94-37.81-5.74c4.44-0.14,8.63,0.37,13.07,1.55c7.53,2,15.49,3.03,23.3,3.19c19.94,0.42,39.9,0.15,59.84,0.13
		c1.45,0,3.04,0.41,4.18-0.98c-1.41-1.83-0.43-3.88-0.44-5.81c-0.07-30.61-0.04-61.21-0.06-91.82
		C2137.5,498.22,2137.76,497.02,2137,495.98z"/>
	<path class="st8" d="M1254.89,375.24c0.28-0.35,0.66-2.09,0.94-0.52c0.54,3,0.17,6.17,0.18,9.27c0.93,1.9,0.45,3.93,0.45,5.89
		c0.07,67.23-0.06,134.46,0.1,201.69c0,1.17,0.09,2.33-0.55,3.39c0.01,0.83,0.18,1.58,0.98,2.02c32.9-0.01,65.8-0.04,98.7,0.06
		c3.62,0.01,6.58-0.55,8.29-4.06c0.01-69.4,0.01-138.79,0.05-208.19c0-1.93-0.66-4.01,0.78-5.78c0.07,1.99,0.21,3.99,0.21,5.98
		c0.01,69.48-0.06,138.95,0.14,208.43c0.01,5-1.4,5.84-6.02,5.81c-32.99-0.21-65.98-0.19-98.97-0.02c-4.03,0.02-5.26-0.79-5.25-5.09
		c0.14-68.48,0.08-136.95,0.06-205.43C1254.97,384.22,1254.92,379.73,1254.89,375.24z"/>
	<path class="st9" d="M2296.99,591.99c3.29-0.8,1.95-3.49,1.95-5.36c0.08-36.27,0.06-72.54,0.06-108.81
		c0-33.61-0.06-67.22,0.05-100.83c0.02-7.14-1.86-14.17-0.95-21.33c2.18,9.13,2.13,18.45,2.14,27.72c0.07,68.87,0.04,137.74,0,206.6
		c0,1.37,0.78,3.03-0.85,4.1c-2.01,2.3-4.52,2.95-7.56,2.95c-31.15-0.08-62.31-0.05-93.47-0.05c-0.33,0-0.67,0.03-1-0.01
		c-1.86-0.22-4.58,0.61-4.71-2.3c-0.16-3.41,2.84-2.11,4.49-2.11c31.49-0.08,62.98-0.05,94.46-0.08
		C2293.4,592.47,2295.27,592.95,2296.99,591.99z"/>
	<path class="st10" d="M1045,383.99c0.45-0.61-0.98-2.16,1-2c2.02,2.04,1.47,4.65,1.47,7.09c0.02,65.68,0.01,131.36,0.04,197.03
		c0,1.95-0.54,3.99,0.51,5.86c0,0.34,0,0.68,0.01,1.02c-0.54,0.89-1.21,1.56-2.37,1.41c-3.06-1.16-2.13-3.83-2.13-6.01
		c-0.04-36.63-0.03-73.25-0.03-109.88c0-29.13-0.01-58.27,0.01-87.4C1043.52,388.66,1043.09,386.07,1045,383.99z"/>
	<path class="st9" d="M888.91,592.98c0,1,0,2.01-0.01,3.01c-1.57,1.32-3.46,0.98-5.25,0.98c-31.21,0.02-62.42,0.05-93.63-0.05
		c-2.4-0.01-6.43,1.23-5.2-3.94c1.23-0.76,2.59-0.46,3.9-0.46c32.1-0.02,64.2-0.02,96.3,0C886.32,592.51,887.69,592.2,888.91,592.98
		z"/>
	<path class="st11" d="M778.15,369.01c4.45,2.12,3.28,6.11,2.7,9.47c-0.46,2.63-0.85,5.21-0.85,7.87
		c0.01,68.61,0.01,137.21,0.02,205.82c0,2.31-0.36,4.69,0.99,6.81c-0.65,0-1.3,0-1.95,0c-1.05-3.19-1.04-6.5-1.04-9.81
		c-0.01-69.19,0.02-138.37-0.08-207.56c0-2.96,1.28-5.89,0.15-8.86C778.11,371.5,778.13,370.25,778.15,369.01z"/>
	<path class="st12" d="M2553,493.99c0-0.32,0-0.64,0-0.96c18.33-0.04,36.65-0.03,54.98-0.16c2.43-0.02,3.08,0.77,3.07,3.13
		c-0.07,33.33-0.07,66.66-0.02,99.99c0,2.28-0.52,3.23-3.02,3.19c-22.32-0.33-44.65,0.5-66.96-0.5c1.65-1.2,3.54-0.67,5.32-0.67
		c19.29-0.04,38.58-0.01,57.87-0.05c2.35-0.01,5.31,0.84,5.74-2.99c-1.14-2.05-0.44-4.25-0.44-6.37
		c-0.05-29.43-0.11-58.87,0.06-88.3c0.03-4.22-1.28-5.46-5.37-5.4c-12.47,0.19-24.94,0.12-37.41,0.05
		C2562.21,494.93,2557.58,494.72,2553,493.99z"/>
	<path class="st13" d="M2657.88,375.27c0.26-0.69,0.11-1.93,1.21-1.72c1.25,0.24,0.78,1.53,0.91,2.42
		c-1.32,3.11,0.07,6.22,0.07,9.34c-0.1,68.9-0.06,137.79-0.08,206.69c0.07,1.73-0.13,3.32-2.13,3.92
		C2657.86,522.37,2657.87,448.82,2657.88,375.27z"/>
	<path class="st14" d="M785,592.99c-0.17,3.96,2.79,2.96,4.9,2.97c28.17,0.04,56.33,0.03,84.5,0.03c4.83,0,9.67,0,14.5,0
		c0,0.66-0.01,1.33-0.01,1.99c-32.6,0-65.21-0.05-97.81,0.07c-3.63,0.01-6.77-0.66-9.77-2.97c1.29-1.08,2.48-2.09,3.68-3.1
		c0.35,0.22,0.47,0.45,0.35,0.67C785.24,592.88,785.12,592.99,785,592.99z"/>
	<path class="st15" d="M1048.03,591.98c-1.86-1.8-0.98-4.11-0.99-6.17c-0.05-65.16-0.05-130.31-0.01-195.47
		c0-2.85-0.16-5.63-1.03-8.36c1.78-1.22,0.4-3.36,1.76-5.42c0.16,2.63,0.28,4.71,0.4,6.78c0.07,1.16,0.19,2.32,0.19,3.47
		c-0.02,67.06-0.05,134.13-0.09,201.19C1048.27,589.33,1048.11,590.65,1048.03,591.98z"/>
	<path class="st16" d="M2296.99,591.99c-1.65,1.73-3.77,0.96-5.68,0.97c-30.29,0.05-60.58,0.04-90.87,0.04c-1,0-2.01-0.11-2.99,0.03
		c-1.48,0.21-4.06-0.86-4.03,1.49c0.02,2.31,2.6,1.43,4.08,1.44c31.79,0.05,63.57,0,95.36,0.11c2.52,0.01,4.42-1.1,6.53-1.97
		c-0.01,0.59-0.02,1.18-0.02,1.76c-0.79,0.38-1.58,0.76-2.36,1.13c-1.22,0.78-2.59,0.47-3.89,0.47c-32.07,0.02-64.15,0.02-96.22,0
		c-1.3,0-2.67,0.31-3.89-0.47c-2.6-4.4-0.16-5.03,3.59-5.02C2230.06,592,2263.52,591.99,2296.99,591.99z"/>
	<path class="st17" d="M160.98,178.18c-2.01,1.23-2,3.15-2,5.21c0.04,33.4,0.04,66.8,0,100.2c0,2.07,0.05,3.97,2,5.23
		c-3.27,0.9-2.99-1.27-2.99-3.35c0.03-10.49,0.01-20.99,0.01-31.48c0-23.99-0.02-47.97,0.01-71.96
		C158.01,180.09,157.09,177.22,160.98,178.18z"/>
	<path class="st15" d="M941.02,598.94c0.43-0.79,1.18-0.94,1.98-0.97c0.71-0.76,1.62-1.1,2.62-1.25
		c31.71-0.32,63.42-0.07,95.13-0.14c0.93,0,1.86,0.03,2.79,0.17c1.14,0.34,2.49,0.46,2.43,2.16c-18.32,0.08-36.65,0.21-54.97,0.22
		C974.33,599.13,957.67,599.01,941.02,598.94z"/>
	<path class="st16" d="M785,592.99c0-0.33,0-0.67,0-1c34.64,0,69.27,0,103.91,0.01c0,0.33,0,0.66,0,0.99
		C854.27,592.98,819.64,592.99,785,592.99z"/>
	<path class="st18" d="M2143.04,495.98c-1.68-2.33-3.73-2.44-6.03-1.01c-1.47-1.6-3.41-0.95-5.14-0.96
		c-12.54-0.05-25.08,0-37.63-0.06c-1.75-0.01-3.66,0.62-5.2-0.84c17.07-0.06,34.15-0.09,51.22-0.2
		C2142.56,492.9,2143.85,493.39,2143.04,495.98z"/>
	<path class="st19" d="M731.9,495.96c-1.37-2.23-3.57-1.99-5.74-1.99c-13.29,0.02-26.58,0.03-39.87-0.02
		c-1.76-0.01-3.68,0.61-5.25-0.82c16.03-0.07,32.06-0.1,48.08-0.23C731.4,492.89,732.66,493.4,731.9,495.96z"/>
	<path class="st10" d="M1045.96,598.9c-0.43-0.76-1.16-0.9-1.95-0.93c-0.98-2.97,0.46-3.62,3.04-3.15c0.6,1.37,0.7,2.73-0.06,4.08
		C1046.65,598.9,1046.31,598.9,1045.96,598.9z"/>
	<path class="st15" d="M1047,598.89c0-1.3,0-2.6-0.01-3.9c-0.36-0.23-0.48-0.45-0.36-0.68c0.12-0.23,0.24-0.34,0.36-0.34
		c0.35-0.33,0.69-0.65,1.04-0.98C1048.01,595.02,1049.37,597.29,1047,598.89z"/>
	<path class="st20" d="M2659.99,592c-1.62-1.48-0.96-3.44-0.96-5.19c-0.04-68.56-0.04-137.11-0.01-205.67c0-1.75-0.66-3.7,0.98-5.18
		c1.8,10.74,0.94,21.57,0.96,32.36c0.08,59.16,0.05,118.32,0,177.48C2660.96,587.88,2661.8,590.18,2659.99,592z"/>
	<path class="st21" d="M2553,493.99c17.13,0,34.26,0.12,51.39-0.08c4.42-0.05,5.71,1.46,5.69,5.78
		c-0.15,31.76-0.09,63.53-0.09,95.29c-0.33,0.01-0.66,0.01-0.99,0.01c-0.25-0.22-0.34-0.44-0.26-0.66c0.08-0.22,0.16-0.33,0.25-0.33
		c-1.47-1.65-3.43-0.97-5.17-0.98c-14.97-0.05-29.95-0.01-44.92-0.05c-1.61,0-3.31,0.45-5.86-0.98c4.1,0,7.21,0,10.31,0
		c13.64,0,27.29-0.12,40.92,0.08c3.75,0.06,4.81-1.11,4.79-4.82c-0.14-28.78-0.16-57.56,0.01-86.34c0.02-4.06-1.28-5.06-5.13-5
		c-12.64,0.21-25.29,0.2-37.93,0.01C2561.65,495.85,2557.21,495.55,2553,493.99z"/>
	<path class="st12" d="M2608.99,593.99c0,0.33,0.01,0.66,0.01,0.99c-0.83,1.08-2.02,1-3.19,1c-16.49,0-32.99,0.01-49.48-0.02
		c-0.91,0-2.02,0.36-3.22-1.97C2572.13,593.99,2590.56,593.99,2608.99,593.99z"/>
	<path class="st3" d="M1724.07,408c-1.31-1.7-1.26-2.9-0.56-4.41C1725.22,404.74,1725.33,405.97,1724.07,408z"/>
	<path class="st22" d="M2137,495.98c1.72,1.65,0.96,3.78,0.97,5.68c0.05,27.97,0.03,55.95,0.03,83.92c0,3.8,0,7.6,0,11.4
		c-14.61,0-29.22,0.02-43.83-0.03c-1.74-0.01-3.7,0.66-5.17-0.97c1.7-1.54,3.8-0.96,5.74-0.97c12.16-0.06,24.33-0.01,36.49-0.05
		c1.96-0.01,4.04,0.44,5.77-0.98c-1.47-1.63-3.43-0.96-5.18-0.97c-14.97-0.05-29.94-0.01-44.9-0.05c-1.61,0-3.3,0.44-5.93-0.98
		c8.65,0,16.23,0,23.81,0c8.98,0,17.97-0.2,26.94,0.09c4.12,0.13,5.37-1.09,5.35-5.28C2136.92,556.52,2137,526.25,2137,495.98z"/>
	<path class="st2" d="M2137,593.98c-0.63,3.04-3.08,1.95-4.83,1.95c-14.39,0.08-28.78,0.05-43.17,0.05c-4.96,0-9.93,0-14.89,0
		C2095.02,592.85,2116.04,594.47,2137,593.98z"/>
	<path class="st14" d="M2193,596.98c34.67,0,69.33,0,104,0c-1.3,1.52-3.08,0.97-4.67,0.98c-31.55,0.03-63.11,0.03-94.66,0
		C2196.08,597.96,2194.3,598.51,2193,596.98z"/>
	<path class="st9" d="M1046.99,593.98c0,0.34,0,0.68,0,1.02c-1.9,0.08-2.9,1.07-2.98,2.98c-0.67,0-1.34,0.01-2.02,0.01
		c-1.85-1.7-4.13-0.96-6.21-0.97c-28.31-0.05-56.63,0-84.94-0.11c-1.99-0.01-4.8,1.37-5.85-1.92c0-0.34,0-0.67,0-1.01
		c0.25-0.2,0.5-0.4,0.75-0.61c2.12-0.65,4.3-0.37,6.45-0.37c27.29-0.02,54.57-0.01,81.86-0.02c1.99,0,3.99,0.15,5.97-0.22
		c1.03-0.33,1.59-1,1.48-2.13c0-66.92-0.01-133.84,0.03-200.75c0-1.96-0.49-3.99,0.46-5.89c1,0,2,0,3,0
		c0,67.54-0.03,135.09,0.16,202.63C1045.17,588.91,1042.07,592.67,1046.99,593.98z"/>
	<path class="st23" d="M1042,591.98c-0.33,0.33-0.67,0.67-1,1c-1.73,0.91-3.59,0.46-5.39,0.46c-28.41,0.03-56.83,0.01-85.24,0.05
		c-1.79,0-3.66-0.48-5.37,0.49c0,0,0,0,0,0c-1.43-0.73-2.67-1.14-4.39-0.22c-2.58,1.38-1.19-1.07-1.48-1.9
		c0.76-1.93,0.37-3.95,0.37-5.92c0.02-66.69,0.01-133.38,0.04-200.07c0-1.96-0.49-3.99,0.46-5.89c0.14-1.38-0.46-2.95,1-4
		c0.2,0.25,0.4,0.51,0.61,0.76c0.54,4.79,0.81,9.59,0.81,14.41c0.03,65.21-0.08,130.41,0.05,195.52c0.25-31.25,0.07-62.41,0.1-93.57
		c0.04-33.82-0.01-67.65,0.04-101.47c0-2.59-0.67-5.39,1.39-7.64c0-4.96,0-9.92,0-15.79c1.51,2.53,0.97,4.34,0.97,6.05
		C945,444.69,945,515.14,945,585.59c0,6.39,0.01,6.4,6.56,6.4c29.81,0,59.62,0,89.43,0C1041.33,591.51,1041.67,591.49,1042,591.98z"
		/>
	<path class="st24" d="M944,383.99c0,67.38,0.02,134.76-0.07,202.14c0,1.99,1.55,4.87-1.93,5.86c-0.95-1.9-0.46-3.93-0.46-5.89
		c-0.03-68.07-0.02-136.15-0.05-204.22c0-1.96,0.51-3.99-0.49-5.88c0,0,0,0,0,0c0.24-2.44-0.54-4.97,0.9-8.08
		C944.51,373.46,941.39,379.16,944,383.99z"/>
	<path class="st25" d="M1256.01,594.97c0-70.32-0.01-140.65-0.01-210.97c1.8,1.83,0.95,4.12,0.95,6.18
		c0.05,65.29,0.09,130.59-0.07,195.88c-0.01,4.88,1.41,6.07,6.15,6.04c30.65-0.21,61.29-0.11,91.94-0.11c1.63,0,3.25,0,5.78,0
		c-2.5,1.51-4.32,0.96-6.02,0.96c-30.81,0.04-61.63,0.03-92.44,0.03C1259.98,592.98,1257.58,592.62,1256.01,594.97z"/>
	<path class="st26" d="M1363.99,592.99c0.62,4.5-2.7,4.77-5.66,4.93c-4.31,0.23-8.63,0.07-12.95,0.07
		c-27.57,0-55.14,0.02-82.71-0.03c-1.9,0-4.02,0.75-5.67-0.96c1.65-1.73,3.78-0.96,5.68-0.97c28.97-0.05,57.94-0.02,86.91-0.05
		C1354.57,595.97,1359.81,596.99,1363.99,592.99z"/>
	<path class="st27" d="M940,379.99c0,68.72,0.01,137.44-0.04,206.16c0,1.91,0.75,4.01-0.84,5.72c-0.04-47.76-0.08-95.52-0.11-143.29
		c-0.01-20.97-0.02-41.94,0.03-62.91C939.05,383.77,938.3,381.65,940,379.99z"/>
	<path class="st21" d="M1042,591.98c-0.33,0-0.67,0-1,0c0-67.27-0.01-134.54,0.04-201.82c0-2.06-0.84-4.36,0.96-6.18
		C1042,453.32,1042,522.65,1042,591.98z"/>
	<path class="st26" d="M945,594.99c1.65,1.72,3.78,0.97,5.68,0.96c29.96-0.06,59.92-0.16,89.88-0.35c2.41-0.02,2,0.96,1.44,2.38
		c-32.33,0-64.67,0-97,0c-1.01-0.77-2.18-1.49-1-2.99C944.34,594.99,944.67,594.99,945,594.99z"/>
	<path class="st27" d="M944,594.99c0.33,1,0.66,2,1,2.99c-0.67-0.01-1.33-0.01-2-0.02C942.44,596.67,939.92,594.71,944,594.99z"/>
	<path class="st1" d="M945,593.98c1.65-1.72,3.77-0.96,5.68-0.96c30.11-0.05,60.22-0.03,90.32-0.03c-1.65,1.71-3.77,0.96-5.68,0.96
		C1005.21,594,975.11,593.98,945,593.98z"/>
	<path class="st1" d="M941,375.99c1.8,1.82,0.96,4.12,0.96,6.18c0.05,69.94,0.04,139.88,0.04,209.82c-1.8-1.82-0.96-4.12-0.96-6.18
		C940.99,515.86,941,445.92,941,375.99z"/>
</g>
</svg>
