<?xml version="1.0" encoding="utf-8"?>
<!-- Generator: Adobe Illustrator 25.2.1, SVG Export Plug-In . SVG Version: 6.00 Build 0)  -->
<svg version="1.1" id="Layer_1" xmlns="http://www.w3.org/2000/svg" xmlns:xlink="http://www.w3.org/1999/xlink" x="0px" y="0px"
	 viewBox="0 0 238.23 32.39" style="enable-background:new 0 0 238.23 32.39;" xml:space="preserve">
<style type="text/css">
	.st0{fill:#FF1101;}
</style>
<g>
	<g>
		<g>
			<g>
				<path d="M105.09,17.6l-2.24,8.23c-0.47,0.04-1.06,0.11-1.98,0.11c-4.39,0-3.9-1.32-2.05-8.49c1.93-7.45,3.05-8.81,5.79-8.81
					c2.64,0,2.66,1.78,1.99,4.03h6.7c1.09-4.2,0.36-7.92-7.47-7.92c-8.72,0-11.09,1.84-13.9,12.71c-2.62,10.12-1.76,12.8,7.67,12.8
					c4.47,0,6.34-0.33,9.06-0.82l3.15-11.83H105.09z"/>
				<path d="M121.07,25.72c-0.87,0-1.18-0.26-1.01-0.97l1.52-5.95h8.96l1.01-3.9h-8.96l1.02-3.97c0.27-1.04,1-1.92,2.45-1.92h7.18
					l1.01-3.91h-10.43c-4.32,0-5.62,0.77-7.31,7.28l-3.1,11.9c-0.95,3.99,0.24,5.73,3.5,5.73h9c1.77,0,2.91-0.94,3.46-2.38l0.74-1.9
					H121.07z"/>
				<path d="M223.57,25.72c-0.87,0-1.18-0.26-1.01-0.97l1.52-5.95h8.96l1.01-3.9h-8.96l1.02-3.97c0.27-1.04,1.01-1.92,2.45-1.92
					h7.17l1.01-3.91h-10.43c-4.33,0-5.63,0.77-7.31,7.28l-3.09,11.9c-0.95,3.99,0.24,5.73,3.5,5.73h9c1.77,0,2.91-0.94,3.46-2.38
					l0.74-1.9H223.57z"/>
				<path d="M81.73,5.1h-8.97l-6.25,24.16c-0.11,0.41,0.13,0.75,0.54,0.75h7.99c10.03,0,11.73-1.92,14.48-12.56
					C91.91,8.2,90.44,5.1,81.73,5.1z M75.98,25.75h-1.84l4.33-16.74c0.56,0,0.77-0.02,2.14-0.02c3.89,0,3.88,1.29,2.03,8.46
					C80.77,24.71,79.68,25.75,75.98,25.75z"/>
				<path d="M207.21,5.05c-5.17,0-7.57,0.11-8.98,0.05l-6.25,24.16c-0.11,0.41,0.13,0.75,0.54,0.75h5.99l5.43-21
					c0.55,0,1.39-0.05,2.25-0.05c2.91,0,3.29,1.04,2.53,4l-4.21,16.3c-0.11,0.41,0.13,0.75,0.54,0.75h5.99l4.41-17.04
					C216.97,7.06,214.37,5.05,207.21,5.05z"/>
				<path d="M155.3,5.1l-1.04,4.05h6.66c0.07,0,0.07,0.08,0.01,0.13c-1.06,0.8-1.71,1.94-2.02,3.13l-4.37,16.85
					c-0.11,0.41,0.14,0.75,0.54,0.75h6.43l5.41-20.86h3.3c1.85,0,2.98-0.78,3.6-2.39l0.63-1.66H155.3z"/>
				<path d="M61.99,30.01l6.25-24.16C68.35,5.43,68.1,5.1,67.7,5.1h-6.34l-6.25,24.16c-0.11,0.41,0.13,0.75,0.54,0.75H61.99z"/>
				<path d="M184.75,4.75c-7.54,0-10.82,1.34-13.78,12.8c-2.57,9.93-0.51,12.8,7.16,12.8c7.8,0,10.89-1.61,13.78-12.8
					C194.01,9.45,193.58,4.75,184.75,4.75z M179.21,26.17c-2.88,0-3.3-1.05-1.3-8.82c1.67-6.46,3.27-8.71,5.83-8.71
					c2.88,0,3.19,1.54,1.34,8.71C183.25,24.46,181.44,26.17,179.21,26.17z"/>
				<path class="st0" d="M5.23,17.74l3.9-13.69c0.38-1.41,1.93-2.69,3.51-2.69h11.93c0.2,0,0.26,0.26,0.11,0.37
					C18.47,5.97,10.99,12.27,5.56,17.92C5.42,18.06,5.17,17.94,5.23,17.74z"/>
				<path d="M14.65,25.96l3.86-13.51c0.06-0.2-0.16-0.35-0.33-0.21C12.5,17.12,5.65,24.26,1.36,29.66
					c-0.11,0.14-0.05,0.35,0.14,0.35h16.71c7.05,0,10.91-2.18,12.3-7.4c1.14-4.25-1.09-7.15-4.64-7.89c-0.06-0.01-0.12-0.13,0-0.15
					c3.01-0.51,6.04-1.73,7.12-6.11c1.17-4.75-2.46-7.35-6.63-7.08l-6.39,22.37c-0.35,1.21-1.64,2.23-2.87,2.23H14.65z"/>
				<path d="M50.97,20.02c-0.22-0.74-0.47-1.29-0.82-1.73c-0.05-0.06-0.06-0.13,0.03-0.16c2.86-0.88,4.74-2.69,5.53-5.76
					c1.05-4.05-1.51-7.28-7.96-7.28h-9.59l-6.25,24.16c-0.11,0.41,0.13,0.75,0.54,0.75h5.99l5.43-21c0.58,0,1.13-0.02,2.52-0.02
					c2.31,0,3.16,1.43,2.67,3.35c-0.66,2.54-2.62,3.96-4.96,3.96h-0.88l2.49,12.06c0.3,1.17,0.89,1.66,2.24,1.66h5.35L50.97,20.02z"
					/>
				<g>
					<path d="M132.54,21.57c-2.54,6.07,0.77,8.82,7.51,8.82c6.15,0,9.56-1.46,11.03-7.12c0.5-1.93,0.18-4.02-1.01-5.31
						c-2.3-2.5-6.73-2.97-8.28-4.42c-0.79-0.74-0.78-1.77-0.55-2.66c0.42-1.63,1.52-2.52,3.29-2.52c2.78,0,2.85,1.71,2.17,3.74h5.96
						c1.4-4.24-0.43-7.56-7.46-7.56c-5.91,0-9.1,2.32-10.25,6.76c-0.32,1.22-0.2,3.21,0.53,4.46c1.62,2.78,5.92,3.13,8.3,4.78
						c1.03,0.72,1.07,1.69,0.79,2.76c-0.54,2.07-1.58,3.06-3.65,3.06c-1.99,0-3.19-1.16-2.05-4.8H132.54z"/>
				</g>
			</g>
		</g>
	</g>
</g>
</svg>
