<?xml version="1.0" encoding="utf-8"?>
<!-- Generator: Adobe Illustrator 25.0.0, SVG Export Plug-In . SVG Version: 6.00 Build 0)  -->
<svg version="1.1" id="Layer_1" xmlns="http://www.w3.org/2000/svg" xmlns:xlink="http://www.w3.org/1999/xlink" x="0px" y="0px"
	 viewBox="0 0 288 108" style="enable-background:new 0 0 288 108;" xml:space="preserve">
<style type="text/css">
	.st0{display:none;}
	.st1{fill:#DA291C;}
	.st2{fill-rule:evenodd;clip-rule:evenodd;fill:#001489;}
</style>
<g id="Black_BG" class="st0">
</g>
<g>
	<path class="st1" d="M71.7,63.2L71.3,53h2c2.3,5.5,5.8,8.2,10.5,8.2c2.9,0,4.8-1.5,4.8-3.7c0-2-1.5-3.1-4.6-4.2
		c-2.9-1-5.6-1.8-7.9-3c-2.9-1.5-4.3-3.4-4.3-5.8c0-4.2,3.8-7.4,9.3-7.4c3.9,0,6.3,1.5,7.6,1.5c0.7,0,1.1-0.5,1.6-1.5h1.8l0.1,8.1
		h-1.8c-1.8-4.1-4.7-6.2-8.9-6.2c-3,0-4.8,1.3-4.8,3.2c0,2.2,2.5,3,6.8,4.4c3.3,1.1,5.8,1.9,7.4,3.1c2.1,1.5,3,3.3,3,5.6
		c0,4.7-3.8,7.7-10,7.7c-2.3,0-4.3-0.5-6.4-1.3c-1.1-0.4-1.8-0.8-2.3-0.8c-0.8,0-1.3,0.7-1.6,2.1C73.8,63.1,71.7,63.1,71.7,63.2z"/>
	<path class="st1" d="M117.7,53.1c0,6-4.3,9.9-10.5,9.9s-10.5-3.9-10.5-9.9s4.2-9.9,10.5-9.9C113.5,43.2,117.7,47.1,117.7,53.1z
		 M110.8,53.1c0-5.5-0.8-8.2-3.4-8.2c-2.8,0-3.5,2.7-3.5,8.2c0,5.5,0.7,8.2,3.4,8.2C110,61.3,110.8,58.6,110.8,53.1z"/>
	<path class="st1" d="M127.6,62.7c-4.4,0-6.3-2.4-6.3-7.4v-6.9c0-2.4-0.1-3-2.9-3.1v-1.7c0.3,0,0.5,0,0.8,0c2.9,0,5.6-0.2,8.4-0.5
		v12c0,3.3,0.5,5,2.4,5c0.9,0,1.9-0.5,2.6-1.4c1.3-1.7,1.3-3.8,1.3-6.7v-3.6c0-2.4-0.2-3-2.9-3.1v-1.7c0.3,0,0.5,0,0.8,0
		c2.9,0,5.6-0.2,8.4-0.5v14.6c0,2.4,0.1,3,2.9,3.1v1.7c-0.2,0-0.5,0-0.8,0c-2.7,0-5.4,0.2-7.9,0.5v-4.2
		C133.1,61.3,130.5,62.7,127.6,62.7z"/>
	<path class="st1" d="M143.8,45.5v-1.8c3.4-0.7,5.7-3,7.2-7.2h1.9v7.2h5.5v1.8h-5.6v11.2c0,1.9,0.6,2.8,2,2.8c1.6,0,2.6-1,2.6-3
		c0-0.1,0-0.3,0-0.5h2c0,0.1,0,0.3,0,0.5c0,4.4-2.3,6.6-6.6,6.6c-4,0-6.2-2-6.2-5.7V45.5L143.8,45.5L143.8,45.5z"/>
	<path class="st1" d="M184.3,60.8v1.7h-11.4v-1.7c2.3-0.1,2.3-0.8,2.3-3.1V51c0-3.3-0.5-5-2.4-5c-2.8,0-3.9,2.8-3.9,8.1v3.6
		c0,2.3,0,3,2.3,3.1v1.7h-11.4v-1.7c2.8-0.1,2.9-0.7,2.9-3.1V41.9c0-2.4-0.2-2.9-2.9-3.1v-1.7c0.4,0,0.8,0,1.1,0
		c2.7,0,5.4-0.2,8-0.7v10c1.5-2,3.7-3.1,6.3-3.1c4.4,0,6.3,2.4,6.3,7.4v6.9C181.4,60.2,181.5,60.7,184.3,60.8z"/>
	<path class="st1" d="M192,53.6c0,5,1.4,7.4,4.9,7.4c2.6,0,4.6-1.5,5.3-4.2h2.1c-0.8,4.1-3.8,6.3-8.5,6.3c-6.5,0-10.8-3.8-10.8-9.9
		c0-6,4.2-10,10-10c5.4,0,8.9,3.4,8.9,9.3c0,0.1,0,0.2,0,0.3h-12C192,53,192,53.3,192,53.6z M197.6,51v-1.8c0-2.8-0.7-4.2-2.7-4.2
		c-1.8,0-2.9,1.5-2.9,4.2V51H197.6z"/>
	<path class="st1" d="M208,57.8v-9.3c0-2.4-0.2-3-2.9-3.1v-1.7c0.2,0,0.5,0,0.8,0c2.7,0,5.4-0.2,7.9-0.5v4.5
		c1.4-2.8,3.4-4.2,5.5-4.2c2.2,0,3.9,1.5,3.9,3.5c0,1.8-1.3,3-3.3,3c-1.6,0-2.7-0.9-2.7-2c0-0.2,0-0.4,0-0.6c0-0.5-0.2-0.7-0.6-0.7
		c-1.6,0-2.4,2.5-2.4,7.5v3.6c0,2.5,0.2,3,3.4,3.1v1.7h-12.6v-1.7C207.8,60.7,208,60.2,208,57.8z"/>
	<path class="st1" d="M248.7,60.8v1.7h-11.4v-1.7c2.3-0.1,2.3-0.8,2.3-3.1v-8.2c0-2.4-0.7-3.6-2.4-3.6c-3,0-3.9,2.8-3.9,8.2v3.6
		c0,2.3,0,3,2.3,3.1v1.7h-11.4v-1.7c2.7-0.1,2.9-0.7,2.9-3.1v-9.3c0-2.4-0.2-3-2.9-3.1v-1.7c0.2,0,0.5,0,0.7,0
		c2.7,0,5.4-0.2,7.9-0.5v4.2c1.3-2.5,3.8-3.9,6.8-3.9c4.4,0,6.3,2.4,6.3,7.4v6.9C245.8,60.2,245.9,60.7,248.7,60.8z"/>
	<path class="st1" d="M107,79.1l-1.5-0.1c-1.5-4.3-3.1-6.3-6.3-6.3c-0.7,0-0.7,0.1-0.7,1.1v13.6c0,1.3,0.6,1.9,2,1.9l1.4,0.1v1.4
		H89.6v-1.4l1.4-0.1c1.5-0.1,2-0.6,2-1.9V73.8c0-1,0-1.1-0.7-1.1c-3.2,0-4.8,2-6.3,6.3l-1.5,0.1l0.2-7.7h22.1L107,79.1z"/>
	<path class="st1" d="M107.9,77.3V76c0.2,0,0.4,0,0.6,0c2.3,0,4.4-0.1,6.5-0.4V87c0,1.8,0,2.3,1.8,2.4v1.3h-9v-1.3
		c2.2-0.1,2.3-0.5,2.3-2.4v-7.3C110.2,77.8,110.1,77.4,107.9,77.3z M112.4,69.5c1.8,0,2.8,0.8,2.8,2s-1,2-2.8,2s-2.8-0.8-2.8-2
		C109.6,70.3,110.7,69.5,112.4,69.5z"/>
	<path class="st1" d="M120.5,87v-7.3c0-1.9-0.1-2.3-2.3-2.4V76c0.2,0,0.4,0,0.6,0c2.1,0,4.2-0.1,6.2-0.4v3.6
		c1.1-2.2,2.7-3.3,4.3-3.3c1.8,0,3.1,1.1,3.1,2.7c0,1.4-1,2.3-2.6,2.3c-1.3,0-2.1-0.7-2.1-1.6c0-0.1,0-0.3,0-0.5
		c0-0.3-0.2-0.5-0.5-0.5c-1.3,0-1.9,2-1.9,5.8V87c0,1.9,0.2,2.3,2.7,2.4v1.3h-9.8v-1.3C120.4,89.3,120.5,88.9,120.5,87z"/>
	<path class="st1" d="M138.7,83.8c0,4,1.1,5.8,3.8,5.8c2.1,0,3.6-1.1,4.1-3.3h1.7c-0.6,3.2-3,4.9-6.6,4.9c-5.1,0-8.4-3-8.4-7.8
		c0-4.7,3.3-7.8,7.8-7.8c4.3,0,7,2.7,7,7.3c0,0.1,0,0.2,0,0.2h-9.4C138.7,83.3,138.7,83.6,138.7,83.8z M143.1,81.7v-1.4
		c0-2.2-0.6-3.2-2.1-3.2c-1.4,0-2.2,1.2-2.2,3.2v1.4H143.1z"/>
	<path class="st1" d="M166.7,89.3v1.4h-7.9v-1.4c2.6-0.1,3-0.9,3-3.4V75.5c0-1.8-0.1-2.6-2-2.7l-0.9-0.1v-1.4h9.4l5.1,12.4l4.9-12.4
		h9.4v1.4l-0.9,0.1c-1.9,0.1-2,0.9-2,2.7v11c0,1.8,0.1,2.6,2,2.7l0.9,0.1v1.4h-11v-1.4l0.8-0.1c1.9-0.1,2-0.9,2-2.7V72.9l-7.1,17.8
		h-1.4l-7.2-17.8v13C163.7,88.4,164.2,89.3,166.7,89.3z"/>
	<path class="st1" d="M192.7,91.2c-2.5,0-4.2-1.4-4.2-3.5c0-2.8,3.1-4.6,9.7-6.4c0-0.4,0-0.7,0-1.1c0-2.2-0.7-3.1-2.9-3.1
		c-1.4,0-2.3,0.5-2.3,0.8c0,0.1,0.9,0.6,0.9,1.7c0,0.9-0.9,1.6-2.1,1.6c-1.5,0-2.3-0.8-2.3-2.1c0-2,2.7-3.6,6.8-3.6
		c2.6,0,4.6,0.7,5.7,1.8c1,1,1.1,2.1,1.1,3.6c0,0.1,0,0.2,0,0.2v6.3c0,0.7,0.1,1.1,0.6,1.1c0.4,0,0.7-0.3,0.8-0.9h1.2
		c-0.1,2.2-1.5,3.4-3.6,3.4c-2,0-3.4-0.9-3.9-2.5C196.5,90.4,194.7,91.2,192.7,91.2z M193.1,86.7c0,1.2,0.9,2,2.1,2
		c2.1,0,3.1-1.6,3.1-4.9c0-0.4,0-0.8,0-1.2C194.7,83.8,193.1,85,193.1,86.7z"/>
	<path class="st1" d="M208.4,87v-7.3c0-1.9-0.1-2.3-2.3-2.4V76c0.2,0,0.4,0,0.6,0c2.1,0,4.2-0.1,6.2-0.4v3.6
		c1.1-2.2,2.7-3.3,4.3-3.3c1.8,0,3.1,1.1,3.1,2.7c0,1.4-1,2.3-2.6,2.3c-1.3,0-2.1-0.7-2.1-1.6c0-0.1,0-0.3,0-0.5
		c0-0.3-0.1-0.5-0.5-0.5c-1.3,0-1.9,2-1.9,5.8V87c0,1.9,0.1,2.3,2.7,2.4v1.3h-9.8v-1.3C208.2,89.3,208.4,88.9,208.4,87z"/>
	<path class="st1" d="M220.9,77.4V76c2.7-0.5,4.4-2.4,5.6-5.6h1.5V76h4.3v1.4H228v8.7c0,1.5,0.5,2.2,1.6,2.2c1.3,0,2-0.8,2-2.4
		c0-0.1,0-0.2,0-0.3h1.5c0,0.1,0,0.2,0,0.3c0,3.4-1.8,5.2-5.2,5.2c-3.1,0-4.8-1.5-4.8-4.4v-9.3L220.9,77.4L220.9,77.4z"/>
</g>
<path class="st2" d="M153.7,16.6l1.7,2.7c0.9,0,1.8,0,2.7,0c1.2,0,2.3,0,3.5,0.1l-1.6-2.5C158,16.8,155.9,16.7,153.7,16.6z
	 M136.1,16.3l2.1,3.3c2-0.1,4-0.1,6-0.2l-2-3.1C140.2,16.3,138.1,16.3,136.1,16.3z M144.8,16.3l1.9,3c2,0,4.1-0.1,6.1-0.1l-1.8-2.8
	C149,16.4,146.9,16.4,144.8,16.3z M108.7,17.4L108.7,17.4L108.7,17.4c-1.9,0.1-3.7,0.3-5.5,0.5l-0.1,0.3l-2.2,0.8l0.2-1
	c-1.9,0.2-3.7,0.4-5.5,0.6l-0.2,1.1l-2.2,0.8l0.3-1.8c-1.9,0.2-3.7,0.5-5.6,0.7l-0.3,1.8l-2.2,0.8l0.5-2.4c-1.9,0.3-3.8,0.6-5.6,0.9
	L79.9,23l-2.2,0.8l0.5-2.8c-1.9,0.3-3.8,0.7-5.6,1l-0.5,2.5l-2.1,0.8l0.6-2.9c-2.4,0.5-4.8,1-7.1,1.6l0,2.1l-2,1.5l0.1-3.2
	c-3.4,0.8-6.6,1.7-9.7,2.7l0.7,2.4L51.2,32L50,27.8c-3.2,1-6.2,2.1-9,3.2l1.3,3.1l-1.1,2.7l-2.1-5c-2.3,1-4.5,2-6.5,3l2.8,6.8
	l-1.1,2.7l-3.6-8.5c-3,1.7-5.7,3.5-7.9,5.3l7.5,8.7l-0.4,3.1l-8.8-10.2c-2.5,2.4-4.3,5-5.3,7.6l13.6,7.5l0.3,3.1l-14.6-8
	c-0.1,0.6-0.1,1.2-0.2,1.8c0,3.4,1.3,6.6,3.8,9.8l11.8,0.8l1,2.8l-10.1-0.7c1.5,1.4,3.2,2.8,5.1,4.1l8.2,0.6l1,2.8l-4.4-0.3
	c1.9,1.1,4,2.1,6.1,3.1l7.4,0.5l1,2.8l-0.7-0.1c3.6,1.4,7.5,2.7,11.6,3.9L56.6,83l0.6-1.1c-3.2-1.5-6-3-8.6-4.6l-1.3,2.4l-0.9-2.8
	l0.4-0.7c-3.1-2-5.7-4.2-7.7-6.4l-2,3.8l-0.9-2.8l1.4-2.7c-1.2-1.6-2.2-3.2-2.8-4.9l-2,3.7L32,64.1l2-3.8c-0.1-0.7-0.2-1.5-0.2-2.2
	c0-0.1,0-0.2,0-0.4l-2.6,2.5l-0.2-3.1l3.6-3.5c0.3-0.8,0.7-1.7,1.2-2.5L31.4,53l0.5-3l6.8-2.9c0.5-0.6,1.1-1.2,1.7-1.7L35.6,45
	l1.2-2.6l6.4,0.4l1.7-1.1c1.8-1.3,3.8-2.5,6-3.7l-8.5-0.5l1.2-2.6l12.1,0.7c0.8-0.3,1.5-0.7,2.3-1L52.3,33l1.5-2.3l8.3,2.3
	c1-0.4,2-0.7,3-1.1l-2.8-2.6l2-1.3l3.3,3.1c1.5-0.5,3-1,4.6-1.4l-1.6-2.5l2.2-0.6l1.6,2.4c1.7-0.5,3.5-1,5.2-1.4l-1.3-2l2.2-0.6
	l1.3,2.1c1.8-0.4,3.5-0.8,5.4-1.2L86,23.9l2.2-0.6l1.3,2c1.8-0.4,3.6-0.7,5.5-1.1l-1.2-1.9l2.2-0.6l1.3,2.1c1.8-0.3,3.7-0.6,5.6-0.9
	l-1.4-2.2l2.2-0.6l1.6,2.5c1.9-0.3,3.8-0.5,5.7-0.8l-1.7-2.7l2.2-0.6l1.9,3c1.9-0.2,3.8-0.4,5.8-0.6l-2.2-3.4l2.2-0.6l2.4,3.8
	c1.9-0.2,3.9-0.3,5.8-0.5l-2.4-3.7C119.4,16.7,113.9,17,108.7,17.4z M127.4,16.4l2.3,3.6c2-0.1,3.9-0.2,5.9-0.3l-2.2-3.4
	C131.5,16.3,129.4,16.4,127.4,16.4z M171.9,17.7l1.3,2.1c2.1,0.1,4.3,0.2,6.4,0.4l-1.2-1.9C176.3,18.1,174.1,17.9,171.9,17.7z
	 M208.9,22.9l-1.1,0.3l-0.4-0.6c-2.3-0.5-4.6-0.9-7-1.3l0.6,1c6.9,0.9,13.6,2,19.9,3.3C217.1,24.7,213.1,23.7,208.9,22.9z M162.8,17
	l1.5,2.4c2.1,0.1,4.2,0.1,6.3,0.2l-1.4-2.2C167.1,17.3,164.9,17.2,162.8,17z M58,84.8c6.7,1.9,13.9,3.6,21.7,5.1
	c-7.7-2.1-14.6-4.5-20.7-7.2L58,84.8z M190.7,19.8l0.9,1.4c2.2,0.2,4.4,0.5,6.6,0.8l-0.7-1.1C195.3,20.5,193,20.1,190.7,19.8z
	 M181.2,18.6l1.1,1.8c2.2,0.2,4.4,0.4,6.5,0.6l-1-1.5C185.7,19.1,183.5,18.9,181.2,18.6z"/>
</svg>
