<svg class="main-svg" xmlns="http://www.w3.org/2000/svg" xmlns:xlink="http://www.w3.org/1999/xlink" width="1050" height="525" style="" viewBox="0 0 1050 525"><rect x="0" y="0" width="1050" height="525" style="fill: rgb(255, 255, 255); fill-opacity: 1;"/><defs id="defs-8b507d"><g class="clips"><clipPath id="clip8b507dxyplot" class="plotclip"><rect width="827" height="336"/></clipPath><clipPath class="axesclip" id="clip8b507dx"><rect x="80" y="0" width="827" height="525"/></clipPath><clipPath class="axesclip" id="clip8b507dy"><rect x="0" y="100" width="1050" height="336"/></clipPath><clipPath class="axesclip" id="clip8b507dxy"><rect x="80" y="100" width="827" height="336"/></clipPath></g><g class="gradients"/></defs><g class="bglayer"><rect class="bg" x="80" y="100" width="827" height="336" style="fill: rgb(229, 236, 246); fill-opacity: 1; stroke-width: 0;"/></g><g class="layer-below"><g class="imagelayer"/><g class="shapelayer"/></g><g class="cartesianlayer"><g class="subplot xy"><g class="layer-subplot"><g class="shapelayer"/><g class="imagelayer"/></g><g class="gridlayer"><g class="x"><path class="xgrid crisp" transform="translate(119.38,0)" d="M0,100v336" style="stroke: rgb(255, 255, 255); stroke-opacity: 1; stroke-width: 1px;"/><path class="xgrid crisp" transform="translate(158.76,0)" d="M0,100v336" style="stroke: rgb(255, 255, 255); stroke-opacity: 1; stroke-width: 1px;"/><path class="xgrid crisp" transform="translate(198.14,0)" d="M0,100v336" style="stroke: rgb(255, 255, 255); stroke-opacity: 1; stroke-width: 1px;"/><path class="xgrid crisp" transform="translate(237.52,0)" d="M0,100v336" style="stroke: rgb(255, 255, 255); stroke-opacity: 1; stroke-width: 1px;"/><path class="xgrid crisp" transform="translate(276.9,0)" d="M0,100v336" style="stroke: rgb(255, 255, 255); stroke-opacity: 1; stroke-width: 1px;"/><path class="xgrid crisp" transform="translate(316.28999999999996,0)" d="M0,100v336" style="stroke: rgb(255, 255, 255); stroke-opacity: 1; stroke-width: 1px;"/><path class="xgrid crisp" transform="translate(355.67,0)" d="M0,100v336" style="stroke: rgb(255, 255, 255); stroke-opacity: 1; stroke-width: 1px;"/><path class="xgrid crisp" transform="translate(395.05,0)" d="M0,100v336" style="stroke: rgb(255, 255, 255); stroke-opacity: 1; stroke-width: 1px;"/><path class="xgrid crisp" transform="translate(434.43,0)" d="M0,100v336" style="stroke: rgb(255, 255, 255); stroke-opacity: 1; stroke-width: 1px;"/><path class="xgrid crisp" transform="translate(473.81,0)" d="M0,100v336" style="stroke: rgb(255, 255, 255); stroke-opacity: 1; stroke-width: 1px;"/><path class="xgrid crisp" transform="translate(513.19,0)" d="M0,100v336" style="stroke: rgb(255, 255, 255); stroke-opacity: 1; stroke-width: 1px;"/><path class="xgrid crisp" transform="translate(552.5699999999999,0)" d="M0,100v336" style="stroke: rgb(255, 255, 255); stroke-opacity: 1; stroke-width: 1px;"/><path class="xgrid crisp" transform="translate(591.95,0)" d="M0,100v336" style="stroke: rgb(255, 255, 255); stroke-opacity: 1; stroke-width: 1px;"/><path class="xgrid crisp" transform="translate(631.33,0)" d="M0,100v336" style="stroke: rgb(255, 255, 255); stroke-opacity: 1; stroke-width: 1px;"/><path class="xgrid crisp" transform="translate(670.71,0)" d="M0,100v336" style="stroke: rgb(255, 255, 255); stroke-opacity: 1; stroke-width: 1px;"/><path class="xgrid crisp" transform="translate(710.1,0)" d="M0,100v336" style="stroke: rgb(255, 255, 255); stroke-opacity: 1; stroke-width: 1px;"/><path class="xgrid crisp" transform="translate(749.48,0)" d="M0,100v336" style="stroke: rgb(255, 255, 255); stroke-opacity: 1; stroke-width: 1px;"/><path class="xgrid crisp" transform="translate(788.86,0)" d="M0,100v336" style="stroke: rgb(255, 255, 255); stroke-opacity: 1; stroke-width: 1px;"/><path class="xgrid crisp" transform="translate(828.24,0)" d="M0,100v336" style="stroke: rgb(255, 255, 255); stroke-opacity: 1; stroke-width: 1px;"/><path class="xgrid crisp" transform="translate(867.62,0)" d="M0,100v336" style="stroke: rgb(255, 255, 255); stroke-opacity: 1; stroke-width: 1px;"/></g><g class="y"><path class="ygrid crisp" transform="translate(0,349.68)" d="M80,0h827" style="stroke: rgb(255, 255, 255); stroke-opacity: 1; stroke-width: 1px;"/><path class="ygrid crisp" transform="translate(0,280.16999999999996)" d="M80,0h827" style="stroke: rgb(255, 255, 255); stroke-opacity: 1; stroke-width: 1px;"/><path class="ygrid crisp" transform="translate(0,210.65)" d="M80,0h827" style="stroke: rgb(255, 255, 255); stroke-opacity: 1; stroke-width: 1px;"/><path class="ygrid crisp" transform="translate(0,141.13)" d="M80,0h827" style="stroke: rgb(255, 255, 255); stroke-opacity: 1; stroke-width: 1px;"/></g></g><g class="zerolinelayer"><path class="yzl zl crisp" transform="translate(0,419.2)" d="M80,0h827" style="stroke: rgb(255, 255, 255); stroke-opacity: 1; stroke-width: 2px;"/></g><path class="xlines-below"/><path class="ylines-below"/><g class="overlines-below"/><g class="xaxislayer-below"/><g class="yaxislayer-below"/><g class="overaxes-below"/><g class="plot" transform="translate(80,100)" clip-path="url('#clip8b507dxyplot')"><g class="scatterlayer mlayer"><g class="trace scatter traceaf0e37" style="stroke-miterlimit: 2; opacity: 1;"><g class="fills"/><g class="errorbars"/><g class="lines"><path class="js-line" d="M0,319.2L393.81,319.2L433.19,315.72L472.57,312.25L511.95,315.72L551.33,298.34L590.71,315.72L630.1,319.2L669.48,319.2L748.24,312.25L787.62,305.3L827,319.2" style="vector-effect: non-scaling-stroke; fill: none; stroke: rgb(0, 0, 0); stroke-opacity: 1; stroke-width: 2px; opacity: 1;"/></g><g class="points"/><g class="text"/></g><g class="trace scatter trace95895b" style="stroke-miterlimit: 2; opacity: 1;"><g class="fills"/><g class="errorbars"/><g class="lines"><path class="js-line" d="M0,319.2L236.29,319.2L275.67,315.72L315.05,319.2L354.43,319.2L511.95,319.2L551.33,16.8L590.71,37.66L630.1,183.64L669.48,194.07L708.86,253.16L748.24,270.54L787.62,134.98L827,211.45" style="vector-effect: non-scaling-stroke; fill: none; stroke: rgb(202, 167, 77); stroke-opacity: 1; stroke-width: 2px; opacity: 1;"/></g><g class="points"/><g class="text"/></g></g></g><g class="overplot"/><path class="xlines-above crisp" d="M0,0" style="fill: none;"/><path class="ylines-above crisp" d="M0,0" style="fill: none;"/><g class="overlines-above"/><g class="xaxislayer-above"><g class="xtick"><text text-anchor="start" x="0" y="450" transform="translate(80,0) rotate(30,0,443.5)" style="font-family: 'Open Sans', verdana, arial, sans-serif; font-size: 13px; fill: rgb(0, 0, 0); fill-opacity: 1; white-space: pre;">JAN 2020</text></g><g class="xtick"><text text-anchor="start" x="0" y="450" transform="translate(119.38,0) rotate(30,0,443.5)" style="font-family: 'Open Sans', verdana, arial, sans-serif; font-size: 13px; fill: rgb(0, 0, 0); fill-opacity: 1; white-space: pre;">FEB 2020</text></g><g class="xtick"><text text-anchor="start" x="0" y="450" transform="translate(158.76,0) rotate(30,0,443.5)" style="font-family: 'Open Sans', verdana, arial, sans-serif; font-size: 13px; fill: rgb(0, 0, 0); fill-opacity: 1; white-space: pre;">MAR 2020</text></g><g class="xtick"><text text-anchor="start" x="0" y="450" transform="translate(198.14,0) rotate(30,0,443.5)" style="font-family: 'Open Sans', verdana, arial, sans-serif; font-size: 13px; fill: rgb(0, 0, 0); fill-opacity: 1; white-space: pre;">APR 2020</text></g><g class="xtick"><text text-anchor="start" x="0" y="450" transform="translate(237.52,0) rotate(30,0,443.5)" style="font-family: 'Open Sans', verdana, arial, sans-serif; font-size: 13px; fill: rgb(0, 0, 0); fill-opacity: 1; white-space: pre;">MAY 2020</text></g><g class="xtick"><text text-anchor="start" x="0" y="450" transform="translate(276.9,0) rotate(30,0,443.5)" style="font-family: 'Open Sans', verdana, arial, sans-serif; font-size: 13px; fill: rgb(0, 0, 0); fill-opacity: 1; white-space: pre;">JUN 2020</text></g><g class="xtick"><text text-anchor="start" x="0" y="450" transform="translate(316.28999999999996,0) rotate(30,0,443.5)" style="font-family: 'Open Sans', verdana, arial, sans-serif; font-size: 13px; fill: rgb(0, 0, 0); fill-opacity: 1; white-space: pre;">JUL 2020</text></g><g class="xtick"><text text-anchor="start" x="0" y="450" transform="translate(355.67,0) rotate(30,0,443.5)" style="font-family: 'Open Sans', verdana, arial, sans-serif; font-size: 13px; fill: rgb(0, 0, 0); fill-opacity: 1; white-space: pre;">AUG 2020</text></g><g class="xtick"><text text-anchor="start" x="0" y="450" transform="translate(395.05,0) rotate(30,0,443.5)" style="font-family: 'Open Sans', verdana, arial, sans-serif; font-size: 13px; fill: rgb(0, 0, 0); fill-opacity: 1; white-space: pre;">SEPT 2020</text></g><g class="xtick"><text text-anchor="start" x="0" y="450" transform="translate(434.43,0) rotate(30,0,443.5)" style="font-family: 'Open Sans', verdana, arial, sans-serif; font-size: 13px; fill: rgb(0, 0, 0); fill-opacity: 1; white-space: pre;">OCT 2020</text></g><g class="xtick"><text text-anchor="start" x="0" y="450" transform="translate(473.81,0) rotate(30,0,443.5)" style="font-family: 'Open Sans', verdana, arial, sans-serif; font-size: 13px; fill: rgb(0, 0, 0); fill-opacity: 1; white-space: pre;">NOV 2020</text></g><g class="xtick"><text text-anchor="start" x="0" y="450" transform="translate(513.19,0) rotate(30,0,443.5)" style="font-family: 'Open Sans', verdana, arial, sans-serif; font-size: 13px; fill: rgb(0, 0, 0); fill-opacity: 1; white-space: pre;">DEC 2020</text></g><g class="xtick"><text text-anchor="start" x="0" y="450" transform="translate(552.5699999999999,0) rotate(30,0,443.5)" style="font-family: 'Open Sans', verdana, arial, sans-serif; font-size: 13px; fill: rgb(0, 0, 0); fill-opacity: 1; white-space: pre;">JAN 2021</text></g><g class="xtick"><text text-anchor="start" x="0" y="450" transform="translate(591.95,0) rotate(30,0,443.5)" style="font-family: 'Open Sans', verdana, arial, sans-serif; font-size: 13px; fill: rgb(0, 0, 0); fill-opacity: 1; white-space: pre;">FEB 2021</text></g><g class="xtick"><text text-anchor="start" x="0" y="450" transform="translate(631.33,0) rotate(30,0,443.5)" style="font-family: 'Open Sans', verdana, arial, sans-serif; font-size: 13px; fill: rgb(0, 0, 0); fill-opacity: 1; white-space: pre;">MAR 2021</text></g><g class="xtick"><text text-anchor="start" x="0" y="450" transform="translate(670.71,0) rotate(30,0,443.5)" style="font-family: 'Open Sans', verdana, arial, sans-serif; font-size: 13px; fill: rgb(0, 0, 0); fill-opacity: 1; white-space: pre;">APR 2021</text></g><g class="xtick"><text text-anchor="start" x="0" y="450" transform="translate(710.1,0) rotate(30,0,443.5)" style="font-family: 'Open Sans', verdana, arial, sans-serif; font-size: 13px; fill: rgb(0, 0, 0); fill-opacity: 1; white-space: pre;">MAY 2021</text></g><g class="xtick"><text text-anchor="start" x="0" y="450" transform="translate(749.48,0) rotate(30,0,443.5)" style="font-family: 'Open Sans', verdana, arial, sans-serif; font-size: 13px; fill: rgb(0, 0, 0); fill-opacity: 1; white-space: pre;">JUN 2021</text></g><g class="xtick"><text text-anchor="start" x="0" y="450" transform="translate(788.86,0) rotate(30,0,443.5)" style="font-family: 'Open Sans', verdana, arial, sans-serif; font-size: 13px; fill: rgb(0, 0, 0); fill-opacity: 1; white-space: pre;">JUL 2021</text></g><g class="xtick"><text text-anchor="start" x="0" y="450" transform="translate(828.24,0) rotate(30,0,443.5)" style="font-family: 'Open Sans', verdana, arial, sans-serif; font-size: 13px; fill: rgb(0, 0, 0); fill-opacity: 1; white-space: pre;">AUG 2021</text></g><g class="xtick"><text text-anchor="start" x="0" y="450" transform="translate(867.62,0) rotate(30,0,443.5)" style="font-family: 'Open Sans', verdana, arial, sans-serif; font-size: 13px; fill: rgb(0, 0, 0); fill-opacity: 1; white-space: pre;">SEPT 2021</text></g><g class="xtick"><text text-anchor="start" x="0" y="450" transform="translate(907,0) rotate(30,0,443.5)" style="font-family: 'Open Sans', verdana, arial, sans-serif; font-size: 13px; fill: rgb(0, 0, 0); fill-opacity: 1; white-space: pre;">OCT 2021</text></g></g><g class="yaxislayer-above"><g class="ytick"><text text-anchor="end" x="79" y="4.55" transform="translate(0,419.2)" style="font-family: 'Open Sans', verdana, arial, sans-serif; font-size: 13px; fill: rgb(0, 0, 0); fill-opacity: 1; white-space: pre;">0</text></g><g class="ytick"><text text-anchor="end" x="79" y="4.55" transform="translate(0,349.68)" style="font-family: 'Open Sans', verdana, arial, sans-serif; font-size: 13px; fill: rgb(0, 0, 0); fill-opacity: 1; white-space: pre;">20</text></g><g class="ytick"><text text-anchor="end" x="79" y="4.55" transform="translate(0,280.16999999999996)" style="font-family: 'Open Sans', verdana, arial, sans-serif; font-size: 13px; fill: rgb(0, 0, 0); fill-opacity: 1; white-space: pre;">40</text></g><g class="ytick"><text text-anchor="end" x="79" y="4.55" transform="translate(0,210.65)" style="font-family: 'Open Sans', verdana, arial, sans-serif; font-size: 13px; fill: rgb(0, 0, 0); fill-opacity: 1; white-space: pre;">60</text></g><g class="ytick"><text text-anchor="end" x="79" y="4.55" transform="translate(0,141.13)" style="font-family: 'Open Sans', verdana, arial, sans-serif; font-size: 13px; fill: rgb(0, 0, 0); fill-opacity: 1; white-space: pre;">80</text></g></g><g class="overaxes-above"/></g></g><g class="polarlayer"/><g class="ternarylayer"/><g class="geolayer"/><g class="funnelarealayer"/><g class="pielayer"/><g class="treemaplayer"/><g class="sunburstlayer"/><g class="glimages"/><defs id="topdefs-8b507d"><g class="clips"/><clipPath id="legend8b507d"><rect width="130.9" height="49.9" x="0.05" y="0.05"/></clipPath></defs><g class="layer-above"><g class="imagelayer"/><g class="shapelayer"><path data-index="0" fill-rule="evenodd" d="M80,436H552.5699999999999V100H80Z" clip-path="url('#clip8b507dx')" style="opacity: 0.25; stroke: rgb(0, 0, 0); stroke-opacity: 0; fill: rgb(0, 0, 0); fill-opacity: 0; stroke-width: 0px;"/><path data-index="1" fill-rule="evenodd" d="M552.5699999999999,436H552.5699999999999V100H552.5699999999999Z" clip-path="url('#clip8b507dx')" style="opacity: 0.15; stroke: rgb(0, 0, 0); stroke-opacity: 0; fill: rgb(0, 0, 0); fill-opacity: 0; stroke-width: 0px;"/><path data-index="2" fill-rule="evenodd" d="M532.88,436L532.88,100" clip-path="url('#clip8b507dx')" style="opacity: 1; stroke: rgb(0, 128, 0); stroke-opacity: 1; fill: rgb(0, 0, 0); fill-opacity: 0; stroke-dasharray: 10.5px, 10.5px; stroke-width: 3.5px;"/></g></g><g class="infolayer"><g class="legend" pointer-events="all" transform="translate(907,100)"><rect class="bg" shape-rendering="crispEdges" style="stroke: rgb(105, 105, 105); stroke-opacity: 1; fill: rgb(255, 255, 255); fill-opacity: 1; stroke-width: 0.05px;" width="130.95" height="49.95" x="0.025" y="0.025"/><g class="scrollbox" transform="" clip-path="url('#legend8b507d')"><g class="groups"><g class="traces" transform="translate(0.05,15.000000000000002)" style="opacity: 1;"><text class="legendtext" text-anchor="start" x="40" y="5.07" style="font-family: 'Open Sans', verdana, arial, sans-serif; font-size: 13px; fill: rgb(0, 0, 0); fill-opacity: 1; white-space: pre;">245/70R17.5</text><g class="layers" style="opacity: 1;"><g class="legendfill"/><g class="legendlines"><path class="js-line" d="M5,0h30" style="fill: none; stroke: rgb(0, 0, 0); stroke-opacity: 1; stroke-width: 2px;"/></g><g class="legendsymbols"><g class="legendpoints"/></g></g><rect class="legendtoggle" x="0" y="-9.950000000000001" width="125.796875" height="19.900000000000002" style="fill: rgb(0, 0, 0); fill-opacity: 0;"/></g><g class="traces" transform="translate(0.05,34.900000000000006)" style="opacity: 1;"><text class="legendtext" text-anchor="start" x="40" y="5.07" style="font-family: 'Open Sans', verdana, arial, sans-serif; font-size: 13px; fill: rgb(0, 0, 0); fill-opacity: 1; white-space: pre;">295/75R22.5</text><g class="layers" style="opacity: 1;"><g class="legendfill"/><g class="legendlines"><path class="js-line" d="M5,0h30" style="fill: none; stroke: rgb(202, 167, 77); stroke-opacity: 1; stroke-width: 2px;"/></g><g class="legendsymbols"><g class="legendpoints"/></g></g><rect class="legendtoggle" x="0" y="-9.950000000000001" width="125.796875" height="19.900000000000002" style="fill: rgb(0, 0, 0); fill-opacity: 0;"/></g></g></g><rect class="scrollbar" rx="20" ry="3" width="0" height="0" style="fill: rgb(128, 139, 164); fill-opacity: 1;" x="0" y="0"/></g><g class="g-gtitle"><text class="gtitle" x="525" y="50" text-anchor="middle" dy="0em" style="font-family: 'Open Sans', verdana, arial, sans-serif; font-size: 20px; fill: rgb(53, 28, 21); opacity: 1; font-weight: normal; white-space: pre;"><tspan style="font-weight:bold">Bandag Retread Purchases Trend 2020 - 2021</tspan></text></g><g class="g-xtitle"><text class="xtitle" x="493.5" y="513.2244140625" text-anchor="middle" style="font-family: 'Open Sans', verdana, arial, sans-serif; font-size: 16px; fill: rgb(0, 0, 0); opacity: 1; font-weight: normal; white-space: pre;">Month</text></g><g class="g-ytitle"><text class="ytitle" transform="rotate(-90,36.26875,268)" x="36.26875" y="268" text-anchor="middle" style="font-family: 'Open Sans', verdana, arial, sans-serif; font-size: 16px; fill: rgb(0, 0, 0); opacity: 1; font-weight: normal; white-space: pre;">Purchases</text></g><g class="annotation" data-index="0" style="opacity: 1;"><g class="annotation-text-g" transform="rotate(0,125,113)"><g class="cursor-pointer" transform="translate(80,100)"><rect class="bg" x="0.5" y="0.5" width="89" height="25" style="stroke-width: 1px; stroke: rgb(0, 0, 0); stroke-opacity: 0; fill: rgb(0, 0, 0); fill-opacity: 0;"/><text class="annotation-text" text-anchor="middle" x="45.15625" y="20" style="font-family: 'Times New Roman'; font-size: 20px; fill: rgb(0, 0, 0); fill-opacity: 1; white-space: pre;"> Last Year </text></g></g></g><g class="annotation" data-index="1" style="opacity: 1;"><g class="annotation-text-g" transform="rotate(0,611.0699999999999,113)"><g class="cursor-pointer" transform="translate(553,100)"><rect class="bg" x="0.5" y="0.5" width="116" height="25" style="stroke-width: 1px; stroke: rgb(0, 0, 0); stroke-opacity: 0; fill: rgb(0, 0, 0); fill-opacity: 0;"/><text class="annotation-text" text-anchor="middle" x="58.484375" y="20" style="font-family: 'Times New Roman'; font-size: 20px; fill: rgb(0, 0, 0); fill-opacity: 1; white-space: pre;"> Current Year </text></g></g></g></g></svg>