<svg class="main-svg" xmlns="http://www.w3.org/2000/svg" xmlns:xlink="http://www.w3.org/1999/xlink" width="1350" height="675" style="" viewBox="0 0 1350 675"><rect x="0" y="0" width="1350" height="675" style="fill: rgb(255, 255, 255); fill-opacity: 1;"/><defs id="defs-0528f4"><g class="clips"><clipPath id="clip0528f4xyplot" class="plotclip"><rect width="1055" height="473"/></clipPath><clipPath class="axesclip" id="clip0528f4x"><rect x="80" y="0" width="1055" height="675"/></clipPath><clipPath class="axesclip" id="clip0528f4y"><rect x="0" y="100" width="1350" height="473"/></clipPath><clipPath class="axesclip" id="clip0528f4xy"><rect x="80" y="100" width="1055" height="473"/></clipPath></g><g class="gradients"/></defs><g class="bglayer"><rect class="bg" x="80" y="100" width="1055" height="473" style="fill: rgb(229, 236, 246); fill-opacity: 1; stroke-width: 0;"/></g><g class="layer-below"><g class="imagelayer"/><g class="shapelayer"/></g><g class="cartesianlayer"><g class="subplot xy"><g class="layer-subplot"><g class="shapelayer"/><g class="imagelayer"/></g><g class="gridlayer"><g class="x"><path class="xgrid crisp" transform="translate(130.24,0)" d="M0,100v473" style="stroke: rgb(255, 255, 255); stroke-opacity: 1; stroke-width: 1px;"/><path class="xgrid crisp" transform="translate(180.48000000000002,0)" d="M0,100v473" style="stroke: rgb(255, 255, 255); stroke-opacity: 1; stroke-width: 1px;"/><path class="xgrid crisp" transform="translate(230.71,0)" d="M0,100v473" style="stroke: rgb(255, 255, 255); stroke-opacity: 1; stroke-width: 1px;"/><path class="xgrid crisp" transform="translate(280.95,0)" d="M0,100v473" style="stroke: rgb(255, 255, 255); stroke-opacity: 1; stroke-width: 1px;"/><path class="xgrid crisp" transform="translate(331.19,0)" d="M0,100v473" style="stroke: rgb(255, 255, 255); stroke-opacity: 1; stroke-width: 1px;"/><path class="xgrid crisp" transform="translate(381.43,0)" d="M0,100v473" style="stroke: rgb(255, 255, 255); stroke-opacity: 1; stroke-width: 1px;"/><path class="xgrid crisp" transform="translate(431.67,0)" d="M0,100v473" style="stroke: rgb(255, 255, 255); stroke-opacity: 1; stroke-width: 1px;"/><path class="xgrid crisp" transform="translate(481.9,0)" d="M0,100v473" style="stroke: rgb(255, 255, 255); stroke-opacity: 1; stroke-width: 1px;"/><path class="xgrid crisp" transform="translate(532.14,0)" d="M0,100v473" style="stroke: rgb(255, 255, 255); stroke-opacity: 1; stroke-width: 1px;"/><path class="xgrid crisp" transform="translate(582.38,0)" d="M0,100v473" style="stroke: rgb(255, 255, 255); stroke-opacity: 1; stroke-width: 1px;"/><path class="xgrid crisp" transform="translate(632.62,0)" d="M0,100v473" style="stroke: rgb(255, 255, 255); stroke-opacity: 1; stroke-width: 1px;"/><path class="xgrid crisp" transform="translate(682.86,0)" d="M0,100v473" style="stroke: rgb(255, 255, 255); stroke-opacity: 1; stroke-width: 1px;"/><path class="xgrid crisp" transform="translate(733.1,0)" d="M0,100v473" style="stroke: rgb(255, 255, 255); stroke-opacity: 1; stroke-width: 1px;"/><path class="xgrid crisp" transform="translate(783.33,0)" d="M0,100v473" style="stroke: rgb(255, 255, 255); stroke-opacity: 1; stroke-width: 1px;"/><path class="xgrid crisp" transform="translate(833.57,0)" d="M0,100v473" style="stroke: rgb(255, 255, 255); stroke-opacity: 1; stroke-width: 1px;"/><path class="xgrid crisp" transform="translate(883.81,0)" d="M0,100v473" style="stroke: rgb(255, 255, 255); stroke-opacity: 1; stroke-width: 1px;"/><path class="xgrid crisp" transform="translate(934.05,0)" d="M0,100v473" style="stroke: rgb(255, 255, 255); stroke-opacity: 1; stroke-width: 1px;"/><path class="xgrid crisp" transform="translate(984.29,0)" d="M0,100v473" style="stroke: rgb(255, 255, 255); stroke-opacity: 1; stroke-width: 1px;"/><path class="xgrid crisp" transform="translate(1034.52,0)" d="M0,100v473" style="stroke: rgb(255, 255, 255); stroke-opacity: 1; stroke-width: 1px;"/><path class="xgrid crisp" transform="translate(1084.76,0)" d="M0,100v473" style="stroke: rgb(255, 255, 255); stroke-opacity: 1; stroke-width: 1px;"/></g><g class="y"><path class="ygrid crisp" transform="translate(0,492.44)" d="M80,0h1055" style="stroke: rgb(255, 255, 255); stroke-opacity: 1; stroke-width: 1px;"/><path class="ygrid crisp" transform="translate(0,435.53)" d="M80,0h1055" style="stroke: rgb(255, 255, 255); stroke-opacity: 1; stroke-width: 1px;"/><path class="ygrid crisp" transform="translate(0,378.61)" d="M80,0h1055" style="stroke: rgb(255, 255, 255); stroke-opacity: 1; stroke-width: 1px;"/><path class="ygrid crisp" transform="translate(0,321.7)" d="M80,0h1055" style="stroke: rgb(255, 255, 255); stroke-opacity: 1; stroke-width: 1px;"/><path class="ygrid crisp" transform="translate(0,264.78999999999996)" d="M80,0h1055" style="stroke: rgb(255, 255, 255); stroke-opacity: 1; stroke-width: 1px;"/><path class="ygrid crisp" transform="translate(0,207.88)" d="M80,0h1055" style="stroke: rgb(255, 255, 255); stroke-opacity: 1; stroke-width: 1px;"/><path class="ygrid crisp" transform="translate(0,150.97)" d="M80,0h1055" style="stroke: rgb(255, 255, 255); stroke-opacity: 1; stroke-width: 1px;"/></g></g><g class="zerolinelayer"><path class="yzl zl crisp" transform="translate(0,549.35)" d="M80,0h1055" style="stroke: rgb(255, 255, 255); stroke-opacity: 1; stroke-width: 2px;"/></g><path class="xlines-below"/><path class="ylines-below"/><g class="overlines-below"/><g class="xaxislayer-below"/><g class="yaxislayer-below"/><g class="overaxes-below"/><g class="plot" transform="translate(80,100)" clip-path="url('#clip0528f4xyplot')"><g class="scatterlayer mlayer"><g class="trace scatter trace893132" style="stroke-miterlimit: 2; opacity: 1;"><g class="fills"/><g class="errorbars"/><g class="lines"><path class="js-line" d="M0,415.2L50.24,419.19L100.48,422.03L150.71,422.03L200.95,427.15L251.19,426.59L301.43,434.55L351.67,430L401.9,422.6L452.14,435.12L502.38,419.19L552.62,416.91L602.86,413.5L653.1,406.67L703.33,418.62L753.57,415.2L803.81,423.17L854.05,420.89L904.29,426.59L954.52,435.69L1004.76,435.12L1055,438.54" style="vector-effect: non-scaling-stroke; fill: none; stroke: rgb(128, 0, 128); stroke-opacity: 1; stroke-width: 2px; opacity: 1;"/></g><g class="points"/><g class="text"/></g><g class="trace scatter trace7da180" style="stroke-miterlimit: 2; opacity: 1;"><g class="fills"/><g class="errorbars"/><g class="lines"><path class="js-line" d="M0,449.35L50.24,446.5L100.48,449.35L150.71,448.21L200.95,440.24L251.19,446.5L301.43,407.24L351.67,432.85L401.9,436.83L452.14,428.29L502.38,437.4L552.62,432.28L602.86,405.53L653.1,441.38L703.33,440.81L753.57,438.54L803.81,438.54L854.05,416.91L904.29,436.83L954.52,445.37L1004.76,436.83L1055,430" style="vector-effect: non-scaling-stroke; fill: none; stroke: rgb(255, 181, 0); stroke-opacity: 1; stroke-width: 2px; opacity: 1;"/></g><g class="points"/><g class="text"/></g><g class="trace scatter trace0b057f" style="stroke-miterlimit: 2; opacity: 1;"><g class="fills"/><g class="errorbars"/><g class="lines"><path class="js-line" d="M0,23.65L50.24,100.48L100.48,142.6L150.71,75.44L200.95,171.62L251.19,95.93L301.43,148.86L351.67,151.13L401.9,125.52L452.14,96.5L502.38,231.38L552.62,206.91L602.86,285.44L653.1,224.55L703.33,116.42L753.57,138.61L803.81,253L854.05,210.32L904.29,212.6L954.52,234.79L1004.76,164.79L1055,201.21" style="vector-effect: non-scaling-stroke; fill: none; stroke: rgb(65, 105, 225); stroke-opacity: 1; stroke-width: 2px; opacity: 1;"/></g><g class="points"/><g class="text"/></g><g class="trace scatter trace993df2" style="stroke-miterlimit: 2; opacity: 1;"><g class="fills"/><g class="errorbars"/><g class="lines"><path class="js-line" d="M0,423.17L50.24,392.15L100.48,368.25L150.71,370.67L200.95,349.33L251.19,311.05L301.43,334.96L351.67,320.16L401.9,326.14L452.14,320.87L502.38,385.32L552.62,397.84L602.86,391.58L653.1,403.82L703.33,353.17L753.57,353.45L803.81,324.14L854.05,330.12L904.29,315.04L954.52,271.22L1004.76,282.17L1055,308.49" style="vector-effect: non-scaling-stroke; fill: none; stroke: rgb(255, 0, 0); stroke-opacity: 1; stroke-width: 2px; opacity: 1;"/></g><g class="points"/><g class="text"/></g><g class="trace scatter tracee355f1" style="stroke-miterlimit: 2; opacity: 1;"><g class="fills"/><g class="errorbars"/><g class="lines"><path class="js-line" d="M0,438.54L50.24,431.14L100.48,416.34L150.71,420.33L200.95,404.96L251.19,377.07L301.43,377.07L351.67,375.36L401.9,381.63L452.14,394.71L502.38,412.93L552.62,418.05L602.86,426.02L653.1,431.14L703.33,387.89L753.57,397.56L803.81,371.95L854.05,394.15L904.29,389.59L954.52,336.1L1004.76,336.66L1055,345.77" style="vector-effect: non-scaling-stroke; fill: none; stroke: rgb(53, 28, 21); stroke-opacity: 1; stroke-width: 2px; opacity: 1;"/></g><g class="points"/><g class="text"/></g></g></g><g class="overplot"/><path class="xlines-above crisp" d="M0,0" style="fill: none;"/><path class="ylines-above crisp" d="M0,0" style="fill: none;"/><g class="overlines-above"/><g class="xaxislayer-above"><g class="xtick"><text text-anchor="start" x="0" y="590" transform="translate(80,0) rotate(30,0,582)" style="font-family: 'Open Sans', verdana, arial, sans-serif; font-size: 16px; fill: rgb(0, 0, 0); fill-opacity: 1; white-space: pre;">JAN 2020</text></g><g class="xtick"><text text-anchor="start" x="0" y="590" transform="translate(130.24,0) rotate(30,0,582)" style="font-family: 'Open Sans', verdana, arial, sans-serif; font-size: 16px; fill: rgb(0, 0, 0); fill-opacity: 1; white-space: pre;">FEB 2020</text></g><g class="xtick"><text text-anchor="start" x="0" y="590" transform="translate(180.48000000000002,0) rotate(30,0,582)" style="font-family: 'Open Sans', verdana, arial, sans-serif; font-size: 16px; fill: rgb(0, 0, 0); fill-opacity: 1; white-space: pre;">MAR 2020</text></g><g class="xtick"><text text-anchor="start" x="0" y="590" transform="translate(230.71,0) rotate(30,0,582)" style="font-family: 'Open Sans', verdana, arial, sans-serif; font-size: 16px; fill: rgb(0, 0, 0); fill-opacity: 1; white-space: pre;">APR 2020</text></g><g class="xtick"><text text-anchor="start" x="0" y="590" transform="translate(280.95,0) rotate(30,0,582)" style="font-family: 'Open Sans', verdana, arial, sans-serif; font-size: 16px; fill: rgb(0, 0, 0); fill-opacity: 1; white-space: pre;">MAY 2020</text></g><g class="xtick"><text text-anchor="start" x="0" y="590" transform="translate(331.19,0) rotate(30,0,582)" style="font-family: 'Open Sans', verdana, arial, sans-serif; font-size: 16px; fill: rgb(0, 0, 0); fill-opacity: 1; white-space: pre;">JUN 2020</text></g><g class="xtick"><text text-anchor="start" x="0" y="590" transform="translate(381.43,0) rotate(30,0,582)" style="font-family: 'Open Sans', verdana, arial, sans-serif; font-size: 16px; fill: rgb(0, 0, 0); fill-opacity: 1; white-space: pre;">JUL 2020</text></g><g class="xtick"><text text-anchor="start" x="0" y="590" transform="translate(431.67,0) rotate(30,0,582)" style="font-family: 'Open Sans', verdana, arial, sans-serif; font-size: 16px; fill: rgb(0, 0, 0); fill-opacity: 1; white-space: pre;">AUG 2020</text></g><g class="xtick"><text text-anchor="start" x="0" y="590" transform="translate(481.9,0) rotate(30,0,582)" style="font-family: 'Open Sans', verdana, arial, sans-serif; font-size: 16px; fill: rgb(0, 0, 0); fill-opacity: 1; white-space: pre;">SEPT 2020</text></g><g class="xtick"><text text-anchor="start" x="0" y="590" transform="translate(532.14,0) rotate(30,0,582)" style="font-family: 'Open Sans', verdana, arial, sans-serif; font-size: 16px; fill: rgb(0, 0, 0); fill-opacity: 1; white-space: pre;">OCT 2020</text></g><g class="xtick"><text text-anchor="start" x="0" y="590" transform="translate(582.38,0) rotate(30,0,582)" style="font-family: 'Open Sans', verdana, arial, sans-serif; font-size: 16px; fill: rgb(0, 0, 0); fill-opacity: 1; white-space: pre;">NOV 2020</text></g><g class="xtick"><text text-anchor="start" x="0" y="590" transform="translate(632.62,0) rotate(30,0,582)" style="font-family: 'Open Sans', verdana, arial, sans-serif; font-size: 16px; fill: rgb(0, 0, 0); fill-opacity: 1; white-space: pre;">DEC 2020</text></g><g class="xtick"><text text-anchor="start" x="0" y="590" transform="translate(682.86,0) rotate(30,0,582)" style="font-family: 'Open Sans', verdana, arial, sans-serif; font-size: 16px; fill: rgb(0, 0, 0); fill-opacity: 1; white-space: pre;">JAN 2021</text></g><g class="xtick"><text text-anchor="start" x="0" y="590" transform="translate(733.1,0) rotate(30,0,582)" style="font-family: 'Open Sans', verdana, arial, sans-serif; font-size: 16px; fill: rgb(0, 0, 0); fill-opacity: 1; white-space: pre;">FEB 2021</text></g><g class="xtick"><text text-anchor="start" x="0" y="590" transform="translate(783.33,0) rotate(30,0,582)" style="font-family: 'Open Sans', verdana, arial, sans-serif; font-size: 16px; fill: rgb(0, 0, 0); fill-opacity: 1; white-space: pre;">MAR 2021</text></g><g class="xtick"><text text-anchor="start" x="0" y="590" transform="translate(833.57,0) rotate(30,0,582)" style="font-family: 'Open Sans', verdana, arial, sans-serif; font-size: 16px; fill: rgb(0, 0, 0); fill-opacity: 1; white-space: pre;">APR 2021</text></g><g class="xtick"><text text-anchor="start" x="0" y="590" transform="translate(883.81,0) rotate(30,0,582)" style="font-family: 'Open Sans', verdana, arial, sans-serif; font-size: 16px; fill: rgb(0, 0, 0); fill-opacity: 1; white-space: pre;">MAY 2021</text></g><g class="xtick"><text text-anchor="start" x="0" y="590" transform="translate(934.05,0) rotate(30,0,582)" style="font-family: 'Open Sans', verdana, arial, sans-serif; font-size: 16px; fill: rgb(0, 0, 0); fill-opacity: 1; white-space: pre;">JUN 2021</text></g><g class="xtick"><text text-anchor="start" x="0" y="590" transform="translate(984.29,0) rotate(30,0,582)" style="font-family: 'Open Sans', verdana, arial, sans-serif; font-size: 16px; fill: rgb(0, 0, 0); fill-opacity: 1; white-space: pre;">JUL 2021</text></g><g class="xtick"><text text-anchor="start" x="0" y="590" transform="translate(1034.52,0) rotate(30,0,582)" style="font-family: 'Open Sans', verdana, arial, sans-serif; font-size: 16px; fill: rgb(0, 0, 0); fill-opacity: 1; white-space: pre;">AUG 2021</text></g><g class="xtick"><text text-anchor="start" x="0" y="590" transform="translate(1084.76,0) rotate(30,0,582)" style="font-family: 'Open Sans', verdana, arial, sans-serif; font-size: 16px; fill: rgb(0, 0, 0); fill-opacity: 1; white-space: pre;">SEPT 2021</text></g><g class="xtick"><text text-anchor="start" x="0" y="590" transform="translate(1135,0) rotate(30,0,582)" style="font-family: 'Open Sans', verdana, arial, sans-serif; font-size: 16px; fill: rgb(0, 0, 0); fill-opacity: 1; white-space: pre;">OCT 2021</text></g></g><g class="yaxislayer-above"><g class="ytick"><text text-anchor="end" x="79" y="5.6" transform="translate(0,549.35)" style="font-family: 'Open Sans', verdana, arial, sans-serif; font-size: 16px; fill: rgb(0, 0, 0); fill-opacity: 1; white-space: pre;">0</text></g><g class="ytick"><text text-anchor="end" x="79" y="5.6" transform="translate(0,492.44)" style="font-family: 'Open Sans', verdana, arial, sans-serif; font-size: 16px; fill: rgb(0, 0, 0); fill-opacity: 1; white-space: pre;">100</text></g><g class="ytick"><text text-anchor="end" x="79" y="5.6" transform="translate(0,435.53)" style="font-family: 'Open Sans', verdana, arial, sans-serif; font-size: 16px; fill: rgb(0, 0, 0); fill-opacity: 1; white-space: pre;">200</text></g><g class="ytick"><text text-anchor="end" x="79" y="5.6" transform="translate(0,378.61)" style="font-family: 'Open Sans', verdana, arial, sans-serif; font-size: 16px; fill: rgb(0, 0, 0); fill-opacity: 1; white-space: pre;">300</text></g><g class="ytick"><text text-anchor="end" x="79" y="5.6" transform="translate(0,321.7)" style="font-family: 'Open Sans', verdana, arial, sans-serif; font-size: 16px; fill: rgb(0, 0, 0); fill-opacity: 1; white-space: pre;">400</text></g><g class="ytick"><text text-anchor="end" x="79" y="5.6" transform="translate(0,264.78999999999996)" style="font-family: 'Open Sans', verdana, arial, sans-serif; font-size: 16px; fill: rgb(0, 0, 0); fill-opacity: 1; white-space: pre;">500</text></g><g class="ytick"><text text-anchor="end" x="79" y="5.6" transform="translate(0,207.88)" style="font-family: 'Open Sans', verdana, arial, sans-serif; font-size: 16px; fill: rgb(0, 0, 0); fill-opacity: 1; white-space: pre;">600</text></g><g class="ytick"><text text-anchor="end" x="79" y="5.6" transform="translate(0,150.97)" style="font-family: 'Open Sans', verdana, arial, sans-serif; font-size: 16px; fill: rgb(0, 0, 0); fill-opacity: 1; white-space: pre;">700</text></g></g><g class="overaxes-above"/></g></g><g class="polarlayer"/><g class="ternarylayer"/><g class="geolayer"/><g class="funnelarealayer"/><g class="pielayer"/><g class="treemaplayer"/><g class="sunburstlayer"/><g class="glimages"/><defs id="topdefs-0528f4"><g class="clips"/><clipPath id="legend0528f4"><rect width="202.9" height="122.9" x="0.05" y="0.05"/></clipPath></defs><g class="layer-above"><g class="imagelayer"/><g class="shapelayer"><path data-index="0" fill-rule="evenodd" d="M80,573H682.86V100H80Z" clip-path="url('#clip0528f4x')" style="opacity: 0.25; stroke: rgb(0, 0, 0); stroke-opacity: 0; fill: rgb(0, 0, 0); fill-opacity: 0; stroke-width: 0px;"/><path data-index="1" fill-rule="evenodd" d="M682.86,573H682.86V100H682.86Z" clip-path="url('#clip0528f4x')" style="opacity: 0.15; stroke: rgb(0, 0, 0); stroke-opacity: 0; fill: rgb(0, 0, 0); fill-opacity: 0; stroke-width: 0px;"/><path data-index="2" fill-rule="evenodd" d="M657.74,573L657.74,100" clip-path="url('#clip0528f4x')" style="opacity: 1; stroke: rgb(0, 128, 0); stroke-opacity: 1; fill: rgb(0, 0, 0); fill-opacity: 0; stroke-dasharray: 10.5px, 10.5px; stroke-width: 3.5px;"/><path data-index="3" fill-rule="evenodd" d="M657.74,573L657.74,100" clip-path="url('#clip0528f4x')" style="opacity: 1; stroke: rgb(0, 128, 0); stroke-opacity: 1; fill: rgb(0, 0, 0); fill-opacity: 0; stroke-dasharray: 10.5px, 10.5px; stroke-width: 3.5px;"/></g></g><g class="infolayer"><g class="legend" pointer-events="all" transform="translate(1135,100)"><rect class="bg" shape-rendering="crispEdges" style="stroke: rgb(105, 105, 105); stroke-opacity: 1; fill: rgb(255, 255, 255); fill-opacity: 1; stroke-width: 0.05px;" width="202.95" height="122.95" x="0.025" y="0.025"/><g class="scrollbox" transform="" clip-path="url('#legend0528f4')"><g class="groups"><g class="traces" transform="translate(0.05,16.3)" style="opacity: 1;"><text class="legendtext" text-anchor="start" x="40" y="5.85" style="font-family: 'Open Sans', verdana, arial, sans-serif; font-size: 15px; fill: rgb(0, 0, 0); fill-opacity: 1; white-space: pre;">Flat Repair</text><g class="layers" style="opacity: 1;"><g class="legendfill"/><g class="legendlines"><path class="js-line" d="M5,0h30" style="fill: none; stroke: rgb(128, 0, 128); stroke-opacity: 1; stroke-width: 2px;"/></g><g class="legendsymbols"><g class="legendpoints"/></g></g><rect class="legendtoggle" x="0" y="-11.25" width="197.203125" height="22.5" style="fill: rgb(0, 0, 0); fill-opacity: 0;"/></g><g class="traces" transform="translate(0.05,38.8)" style="opacity: 1;"><text class="legendtext" text-anchor="start" x="40" y="5.85" style="font-family: 'Open Sans', verdana, arial, sans-serif; font-size: 15px; fill: rgb(0, 0, 0); fill-opacity: 1; white-space: pre;">Tire Rotation</text><g class="layers" style="opacity: 1;"><g class="legendfill"/><g class="legendlines"><path class="js-line" d="M5,0h30" style="fill: none; stroke: rgb(255, 181, 0); stroke-opacity: 1; stroke-width: 2px;"/></g><g class="legendsymbols"><g class="legendpoints"/></g></g><rect class="legendtoggle" x="0" y="-11.25" width="197.203125" height="22.5" style="fill: rgb(0, 0, 0); fill-opacity: 0;"/></g><g class="traces" transform="translate(0.05,61.3)" style="opacity: 1;"><text class="legendtext" text-anchor="start" x="40" y="5.85" style="font-family: 'Open Sans', verdana, arial, sans-serif; font-size: 15px; fill: rgb(0, 0, 0); fill-opacity: 1; white-space: pre;">Mount and Dismount</text><g class="layers" style="opacity: 1;"><g class="legendfill"/><g class="legendlines"><path class="js-line" d="M5,0h30" style="fill: none; stroke: rgb(65, 105, 225); stroke-opacity: 1; stroke-width: 2px;"/></g><g class="legendsymbols"><g class="legendpoints"/></g></g><rect class="legendtoggle" x="0" y="-11.25" width="197.203125" height="22.5" style="fill: rgb(0, 0, 0); fill-opacity: 0;"/></g><g class="traces" transform="translate(0.05,83.8)" style="opacity: 1;"><text class="legendtext" text-anchor="start" x="40" y="5.85" style="font-family: 'Open Sans', verdana, arial, sans-serif; font-size: 15px; fill: rgb(0, 0, 0); fill-opacity: 1; white-space: pre;">Service Call Hours</text><g class="layers" style="opacity: 1;"><g class="legendfill"/><g class="legendlines"><path class="js-line" d="M5,0h30" style="fill: none; stroke: rgb(255, 0, 0); stroke-opacity: 1; stroke-width: 2px;"/></g><g class="legendsymbols"><g class="legendpoints"/></g></g><rect class="legendtoggle" x="0" y="-11.25" width="197.203125" height="22.5" style="fill: rgb(0, 0, 0); fill-opacity: 0;"/></g><g class="traces" transform="translate(0.05,106.3)" style="opacity: 1;"><text class="legendtext" text-anchor="start" x="40" y="5.85" style="font-family: 'Open Sans', verdana, arial, sans-serif; font-size: 15px; fill: rgb(0, 0, 0); fill-opacity: 1; white-space: pre;">Scrap</text><g class="layers" style="opacity: 1;"><g class="legendfill"/><g class="legendlines"><path class="js-line" d="M5,0h30" style="fill: none; stroke: rgb(53, 28, 21); stroke-opacity: 1; stroke-width: 2px;"/></g><g class="legendsymbols"><g class="legendpoints"/></g></g><rect class="legendtoggle" x="0" y="-11.25" width="197.203125" height="22.5" style="fill: rgb(0, 0, 0); fill-opacity: 0;"/></g></g></g><rect class="scrollbar" rx="20" ry="3" width="0" height="0" style="fill: rgb(128, 139, 164); fill-opacity: 1;" x="0" y="0"/></g><g class="g-gtitle"><text class="gtitle" x="675" y="50" text-anchor="middle" dy="0em" style="font-family: 'Open Sans', verdana, arial, sans-serif; font-size: 24px; fill: rgb(53, 28, 21); opacity: 1; font-weight: normal; white-space: pre;"><tspan style="font-weight:bold">Service Purchases Trend 2020 - 2021</tspan></text></g><g class="g-xtitle"><text class="xtitle" x="607.5" y="663.2638671875" text-anchor="middle" style="font-family: 'Open Sans', verdana, arial, sans-serif; font-size: 19px; fill: rgb(0, 0, 0); opacity: 1; font-weight: normal; white-space: pre;">Month</text></g><g class="g-ytitle"><text class="ytitle" transform="rotate(-90,20.184375000000003,336.5)" x="20.184375000000003" y="336.5" text-anchor="middle" style="font-family: 'Open Sans', verdana, arial, sans-serif; font-size: 19px; fill: rgb(0, 0, 0); opacity: 1; font-weight: normal; white-space: pre;">Services</text></g><g class="annotation" data-index="0" style="opacity: 1;"><g class="annotation-text-g" transform="rotate(0,140.5,117)"><g class="cursor-pointer" transform="translate(80,100)"><rect class="bg" x="0.5" y="0.5" width="120" height="33" style="stroke-width: 1px; stroke: rgb(0, 0, 0); stroke-opacity: 0; fill: rgb(0, 0, 0); fill-opacity: 0;"/><text class="annotation-text" text-anchor="middle" x="60.25" y="26" style="font-family: 'Times New Roman'; font-size: 27px; fill: rgb(0, 0, 0); fill-opacity: 1; white-space: pre;"> Last Year </text></g></g></g><g class="annotation" data-index="1" style="opacity: 1;"><g class="annotation-text-g" transform="rotate(0,761.36,117)"><g class="cursor-pointer" transform="translate(683,100)"><rect class="bg" x="0.5" y="0.5" width="156" height="33" style="stroke-width: 1px; stroke: rgb(0, 0, 0); stroke-opacity: 0; fill: rgb(0, 0, 0); fill-opacity: 0;"/><text class="annotation-text" text-anchor="middle" x="78.25" y="26" style="font-family: 'Times New Roman'; font-size: 27px; fill: rgb(0, 0, 0); fill-opacity: 1; white-space: pre;"> Current Year </text></g></g></g></g></svg>