<svg class="main-svg" xmlns="http://www.w3.org/2000/svg" xmlns:xlink="http://www.w3.org/1999/xlink" width="1445" height="1330" style="" viewBox="0 0 1445 1330"><rect x="0" y="0" width="1445" height="1330" style="fill: rgb(255, 255, 255); fill-opacity: 1;"/><defs id="defs-f120e6"><g class="clips"><clipPath id="clipf120e6xyplot" class="plotclip"><rect width="1273" height="692"/></clipPath><clipPath class="axesclip" id="clipf120e6x"><rect x="80" y="0" width="1273" height="1330"/></clipPath><clipPath class="axesclip" id="clipf120e6y"><rect x="0" y="100" width="1445" height="692"/></clipPath><clipPath class="axesclip" id="clipf120e6xy"><rect x="80" y="100" width="1273" height="692"/></clipPath></g><g class="gradients"/></defs><g class="bglayer"><rect class="bg" x="80" y="100" width="1273" height="692" style="fill: rgb(229, 236, 246); fill-opacity: 1; stroke-width: 0;"/></g><g class="layer-below"><g class="imagelayer"/><g class="shapelayer"/></g><g class="cartesianlayer"><g class="subplot xy"><g class="layer-subplot"><g class="shapelayer"/><g class="imagelayer"/></g><g class="gridlayer"><g class="x"><path class="xgrid crisp" transform="translate(140.62,0)" d="M0,100v692" style="stroke: rgb(255, 255, 255); stroke-opacity: 1; stroke-width: 1px;"/><path class="xgrid crisp" transform="translate(201.24,0)" d="M0,100v692" style="stroke: rgb(255, 255, 255); stroke-opacity: 1; stroke-width: 1px;"/><path class="xgrid crisp" transform="translate(261.86,0)" d="M0,100v692" style="stroke: rgb(255, 255, 255); stroke-opacity: 1; stroke-width: 1px;"/><path class="xgrid crisp" transform="translate(322.48,0)" d="M0,100v692" style="stroke: rgb(255, 255, 255); stroke-opacity: 1; stroke-width: 1px;"/><path class="xgrid crisp" transform="translate(383.1,0)" d="M0,100v692" style="stroke: rgb(255, 255, 255); stroke-opacity: 1; stroke-width: 1px;"/><path class="xgrid crisp" transform="translate(443.71,0)" d="M0,100v692" style="stroke: rgb(255, 255, 255); stroke-opacity: 1; stroke-width: 1px;"/><path class="xgrid crisp" transform="translate(504.33,0)" d="M0,100v692" style="stroke: rgb(255, 255, 255); stroke-opacity: 1; stroke-width: 1px;"/><path class="xgrid crisp" transform="translate(564.95,0)" d="M0,100v692" style="stroke: rgb(255, 255, 255); stroke-opacity: 1; stroke-width: 1px;"/><path class="xgrid crisp" transform="translate(625.57,0)" d="M0,100v692" style="stroke: rgb(255, 255, 255); stroke-opacity: 1; stroke-width: 1px;"/><path class="xgrid crisp" transform="translate(686.19,0)" d="M0,100v692" style="stroke: rgb(255, 255, 255); stroke-opacity: 1; stroke-width: 1px;"/><path class="xgrid crisp" transform="translate(746.81,0)" d="M0,100v692" style="stroke: rgb(255, 255, 255); stroke-opacity: 1; stroke-width: 1px;"/><path class="xgrid crisp" transform="translate(807.43,0)" d="M0,100v692" style="stroke: rgb(255, 255, 255); stroke-opacity: 1; stroke-width: 1px;"/><path class="xgrid crisp" transform="translate(868.05,0)" d="M0,100v692" style="stroke: rgb(255, 255, 255); stroke-opacity: 1; stroke-width: 1px;"/><path class="xgrid crisp" transform="translate(928.67,0)" d="M0,100v692" style="stroke: rgb(255, 255, 255); stroke-opacity: 1; stroke-width: 1px;"/><path class="xgrid crisp" transform="translate(989.29,0)" d="M0,100v692" style="stroke: rgb(255, 255, 255); stroke-opacity: 1; stroke-width: 1px;"/><path class="xgrid crisp" transform="translate(1049.9,0)" d="M0,100v692" style="stroke: rgb(255, 255, 255); stroke-opacity: 1; stroke-width: 1px;"/><path class="xgrid crisp" transform="translate(1110.52,0)" d="M0,100v692" style="stroke: rgb(255, 255, 255); stroke-opacity: 1; stroke-width: 1px;"/><path class="xgrid crisp" transform="translate(1171.14,0)" d="M0,100v692" style="stroke: rgb(255, 255, 255); stroke-opacity: 1; stroke-width: 1px;"/><path class="xgrid crisp" transform="translate(1231.76,0)" d="M0,100v692" style="stroke: rgb(255, 255, 255); stroke-opacity: 1; stroke-width: 1px;"/><path class="xgrid crisp" transform="translate(1292.38,0)" d="M0,100v692" style="stroke: rgb(255, 255, 255); stroke-opacity: 1; stroke-width: 1px;"/></g><g class="y"><path class="ygrid crisp" transform="translate(0,684.98)" d="M80,0h1273" style="stroke: rgb(255, 255, 255); stroke-opacity: 1; stroke-width: 1px;"/><path class="ygrid crisp" transform="translate(0,612.56)" d="M80,0h1273" style="stroke: rgb(255, 255, 255); stroke-opacity: 1; stroke-width: 1px;"/><path class="ygrid crisp" transform="translate(0,540.14)" d="M80,0h1273" style="stroke: rgb(255, 255, 255); stroke-opacity: 1; stroke-width: 1px;"/><path class="ygrid crisp" transform="translate(0,467.73)" d="M80,0h1273" style="stroke: rgb(255, 255, 255); stroke-opacity: 1; stroke-width: 1px;"/><path class="ygrid crisp" transform="translate(0,395.31)" d="M80,0h1273" style="stroke: rgb(255, 255, 255); stroke-opacity: 1; stroke-width: 1px;"/><path class="ygrid crisp" transform="translate(0,322.89)" d="M80,0h1273" style="stroke: rgb(255, 255, 255); stroke-opacity: 1; stroke-width: 1px;"/><path class="ygrid crisp" transform="translate(0,250.47)" d="M80,0h1273" style="stroke: rgb(255, 255, 255); stroke-opacity: 1; stroke-width: 1px;"/><path class="ygrid crisp" transform="translate(0,178.05)" d="M80,0h1273" style="stroke: rgb(255, 255, 255); stroke-opacity: 1; stroke-width: 1px;"/><path class="ygrid crisp" transform="translate(0,105.63)" d="M80,0h1273" style="stroke: rgb(255, 255, 255); stroke-opacity: 1; stroke-width: 1px;"/></g></g><g class="zerolinelayer"><path class="yzl zl crisp" transform="translate(0,757.4)" d="M80,0h1273" style="stroke: rgb(255, 255, 255); stroke-opacity: 1; stroke-width: 2px;"/></g><path class="xlines-below"/><path class="ylines-below"/><g class="overlines-below"/><g class="xaxislayer-below"/><g class="yaxislayer-below"/><g class="overaxes-below"/><g class="plot" transform="translate(80,100)" clip-path="url('#clipf120e6xyplot')"><g class="scatterlayer mlayer"><g class="trace scatter trace66989e" style="stroke-miterlimit: 2; opacity: 1;"><g class="fills"/><g class="errorbars"/><g class="lines"><path class="js-line" d="M0,628.43L60.62,570.5L121.24,570.5L181.86,642.92L242.48,628.43L303.1,613.95L363.71,613.95L484.95,613.95L545.57,584.98L606.19,628.43L666.81,570.5L727.43,527.05L788.05,527.05L848.67,642.92L909.29,628.43L969.9,657.4L1030.52,642.92L1091.14,657.4L1151.76,642.92L1212.38,657.4L1273,599.47" style="vector-effect: non-scaling-stroke; fill: none; stroke: rgb(255, 0, 0); stroke-opacity: 1; stroke-width: 2.2px; opacity: 1;"/></g><g class="points"/><g class="text"/></g><g class="trace scatter tracebff885" style="stroke-miterlimit: 2; opacity: 1;"><g class="fills"/><g class="errorbars"/><g class="lines"><path class="js-line" d="M0,657.4L60.62,642.92L121.24,657.4L181.86,657.4L242.48,642.92L303.1,657.4L363.71,657.4L484.95,657.4L545.57,642.92L606.19,642.92L666.81,657.4L1273,657.4" style="vector-effect: non-scaling-stroke; fill: none; stroke: rgb(255, 165, 0); stroke-opacity: 1; stroke-width: 2.2px; opacity: 1;"/></g><g class="points"/><g class="text"/></g><g class="trace scatter traced96212" style="stroke-miterlimit: 2; opacity: 1;"><g class="fills"/><g class="errorbars"/><g class="lines"><path class="js-line" d="M0,657.4L788.05,657.4L848.67,642.92L909.29,642.92L969.9,657.4L1273,657.4" style="vector-effect: non-scaling-stroke; fill: none; stroke: rgb(0, 0, 255); stroke-opacity: 1; stroke-width: 2.2px; opacity: 1;"/></g><g class="points"/><g class="text"/></g><g class="trace scatter traced5bd5b" style="stroke-miterlimit: 2; opacity: 1;"><g class="fills"/><g class="errorbars"/><g class="lines"><path class="js-line" d="M0,584.98L60.62,642.92L121.24,628.43L181.86,642.92L242.48,642.92L303.1,657.4L363.71,642.92L424.33,642.92L484.95,628.43L545.57,599.47L606.19,599.47L666.81,498.08L727.43,642.92L788.05,642.92L848.67,657.4L969.9,657.4L1030.52,628.43L1091.14,642.92L1151.76,642.92L1212.38,657.4L1273,657.4" style="vector-effect: non-scaling-stroke; fill: none; stroke: rgb(128, 0, 128); stroke-opacity: 1; stroke-width: 2.2px; opacity: 1;"/></g><g class="points"/><g class="text"/></g><g class="trace scatter traceaeb81c" style="stroke-miterlimit: 2; opacity: 1;"><g class="fills"/><g class="errorbars"/><g class="lines"><path class="js-line" d="M0,628.43L60.62,657.4L121.24,642.92L181.86,642.92L242.48,657.4L363.71,657.4L424.33,613.95L484.95,657.4L545.57,599.47L606.19,628.43L666.81,613.95L727.43,628.43L788.05,613.95L969.9,657.4L1030.52,657.4L1091.14,657.4L1151.76,642.92L1212.38,657.4L1273,642.92" style="vector-effect: non-scaling-stroke; fill: none; stroke: rgb(0, 100, 0); stroke-opacity: 1; stroke-width: 2.2px; opacity: 1;"/></g><g class="points"/><g class="text"/></g><g class="trace scatter trace9870fd" style="stroke-miterlimit: 2; opacity: 1;"><g class="fills"/><g class="errorbars"/><g class="lines"><path class="js-line" d="M0,642.92L121.24,642.92L181.86,657.4L484.95,657.4L545.57,642.92L606.19,642.92L666.81,657.4L727.43,556.01L788.05,628.43L848.67,642.92L909.29,599.47L969.9,642.92L1030.52,657.4L1091.14,642.92L1151.76,657.4L1212.38,642.92L1273,657.4" style="vector-effect: non-scaling-stroke; fill: none; stroke: rgb(165, 42, 42); stroke-opacity: 1; stroke-width: 2.2px; opacity: 1; stroke-dasharray: 3px, 3px;"/></g><g class="points"/><g class="text"/></g><g class="trace scatter trace6522cd" style="stroke-miterlimit: 2; opacity: 1;"><g class="fills"/><g class="errorbars"/><g class="lines"><path class="js-line" d="M0,657.4L60.62,642.92L121.24,657.4L181.86,657.4L242.48,642.92L303.1,657.4L363.71,657.4L788.05,657.4L848.67,642.92L909.29,657.4L969.9,657.4L1273,657.4" style="vector-effect: non-scaling-stroke; fill: none; stroke: rgb(255, 165, 0); stroke-opacity: 1; stroke-width: 2.2px; opacity: 1; stroke-dasharray: 3px, 3px;"/></g><g class="points"/><g class="text"/></g><g class="trace scatter trace5bcacd" style="stroke-miterlimit: 2; opacity: 1;"><g class="fills"/><g class="errorbars"/><g class="lines"><path class="js-line" d="M0,628.43L60.62,657.4L121.24,642.92L181.86,642.92L242.48,657.4L363.71,657.4L424.33,613.95L484.95,657.4L545.57,599.47L606.19,628.43L666.81,613.95L727.43,628.43L788.05,613.95L969.9,657.4L1030.52,657.4L1091.14,657.4L1151.76,642.92L1212.38,657.4L1273,642.92" style="vector-effect: non-scaling-stroke; fill: none; stroke: rgb(65, 105, 225); stroke-opacity: 1; stroke-width: 2.2px; opacity: 1; stroke-dasharray: 3px, 3px;"/></g><g class="points"/><g class="text"/></g><g class="trace scatter trace78e035" style="stroke-miterlimit: 2; opacity: 1;"><g class="fills"/><g class="errorbars"/><g class="lines"><path class="js-line" d="M0,570.5L60.62,628.43L121.24,642.92L242.48,642.92L303.1,657.4L363.71,613.95L424.33,657.4L484.95,642.92L545.57,642.92L606.19,628.43L666.81,570.5L727.43,657.4L788.05,628.43L848.67,584.98L909.29,642.92L969.9,657.4L1030.52,642.92L1091.14,642.92L1151.76,657.4L1273,657.4" style="vector-effect: non-scaling-stroke; fill: none; stroke: rgb(128, 0, 128); stroke-opacity: 1; stroke-width: 2.2px; opacity: 1; stroke-dasharray: 3px, 3px;"/></g><g class="points"/><g class="text"/></g><g class="trace scatter trace9ec377" style="stroke-miterlimit: 2; opacity: 1;"><g class="fills"/><g class="errorbars"/><g class="lines"><path class="js-line" d="M0,454.63L60.62,382.21L121.24,498.08L181.86,613.95L242.48,642.92L303.1,657.4L363.71,599.47L424.33,642.92L484.95,570.5L545.57,570.5L606.19,541.53L666.81,411.18L727.43,512.56L788.05,411.18L848.67,34.6L909.29,251.86L969.9,541.53L1030.52,512.56L1091.14,425.66L1151.76,556.01L1212.38,425.66L1273,483.6" style="vector-effect: non-scaling-stroke; fill: none; stroke: rgb(0, 100, 0); stroke-opacity: 1; stroke-width: 2.2px; opacity: 1; stroke-dasharray: 3px, 3px;"/></g><g class="points"/><g class="text"/></g><g class="trace scatter trace0f6201" style="stroke-miterlimit: 2; opacity: 1;"><g class="fills"/><g class="errorbars"/><g class="lines"><path class="js-line" d="M0,657.4L60.62,657.4L121.24,642.92L181.86,657.4L242.48,628.43L303.1,657.4L363.71,657.4L424.33,628.43L484.95,642.92L606.19,642.92L666.81,657.4L727.43,584.98L788.05,628.43L848.67,628.43L909.29,642.92L969.9,628.43L1030.52,657.4L1091.14,642.92L1151.76,657.4L1212.38,642.92L1273,657.4" style="vector-effect: non-scaling-stroke; fill: none; stroke: rgb(105, 105, 105); stroke-opacity: 1; stroke-width: 3px; opacity: 1;"/></g><g class="points"/><g class="text"/></g><g class="trace scatter trace29a31f" style="stroke-miterlimit: 2; opacity: 1;"><g class="fills"/><g class="errorbars"/><g class="lines"><path class="js-line" d="M0,512.56L60.62,512.56L121.24,469.11L181.86,628.43L242.48,599.47L303.1,628.43L363.71,584.98L424.33,541.53L484.95,556.01L545.57,49.08L606.19,512.56L666.81,411.18L727.43,425.66L788.05,353.24L848.67,483.6L909.29,396.69L969.9,556.01L1030.52,628.43L1091.14,628.43L1151.76,599.47L1212.38,642.92L1273,584.98" style="vector-effect: non-scaling-stroke; fill: none; stroke: rgb(64, 224, 208); stroke-opacity: 1; stroke-width: 2.2px; opacity: 1;"/></g><g class="points"/><g class="text"/></g></g></g><g class="overplot"/><path class="xlines-above crisp" d="M0,0" style="fill: none;"/><path class="ylines-above crisp" d="M0,0" style="fill: none;"/><g class="overlines-above"/><g class="xaxislayer-above"><g class="xtick"><text text-anchor="start" x="0" y="812" transform="translate(80,0) rotate(30,0,802.5)" style="font-family: Arial; font-size: 19px; fill: rgb(0, 0, 0); fill-opacity: 1; white-space: pre;">JAN 2020</text></g><g class="xtick"><text text-anchor="start" x="0" y="812" transform="translate(140.62,0) rotate(30,0,802.5)" style="font-family: Arial; font-size: 19px; fill: rgb(0, 0, 0); fill-opacity: 1; white-space: pre;">FEB 2020</text></g><g class="xtick"><text text-anchor="start" x="0" y="812" transform="translate(201.24,0) rotate(30,0,802.5)" style="font-family: Arial; font-size: 19px; fill: rgb(0, 0, 0); fill-opacity: 1; white-space: pre;">MAR 2020</text></g><g class="xtick"><text text-anchor="start" x="0" y="812" transform="translate(261.86,0) rotate(30,0,802.5)" style="font-family: Arial; font-size: 19px; fill: rgb(0, 0, 0); fill-opacity: 1; white-space: pre;">APR 2020</text></g><g class="xtick"><text text-anchor="start" x="0" y="812" transform="translate(322.48,0) rotate(30,0,802.5)" style="font-family: Arial; font-size: 19px; fill: rgb(0, 0, 0); fill-opacity: 1; white-space: pre;">MAY 2020</text></g><g class="xtick"><text text-anchor="start" x="0" y="812" transform="translate(383.1,0) rotate(30,0,802.5)" style="font-family: Arial; font-size: 19px; fill: rgb(0, 0, 0); fill-opacity: 1; white-space: pre;">JUN 2020</text></g><g class="xtick"><text text-anchor="start" x="0" y="812" transform="translate(443.71,0) rotate(30,0,802.5)" style="font-family: Arial; font-size: 19px; fill: rgb(0, 0, 0); fill-opacity: 1; white-space: pre;">JUL 2020</text></g><g class="xtick"><text text-anchor="start" x="0" y="812" transform="translate(504.33,0) rotate(30,0,802.5)" style="font-family: Arial; font-size: 19px; fill: rgb(0, 0, 0); fill-opacity: 1; white-space: pre;">AUG 2020</text></g><g class="xtick"><text text-anchor="start" x="0" y="812" transform="translate(564.95,0) rotate(30,0,802.5)" style="font-family: Arial; font-size: 19px; fill: rgb(0, 0, 0); fill-opacity: 1; white-space: pre;">SEPT 2020</text></g><g class="xtick"><text text-anchor="start" x="0" y="812" transform="translate(625.57,0) rotate(30,0,802.5)" style="font-family: Arial; font-size: 19px; fill: rgb(0, 0, 0); fill-opacity: 1; white-space: pre;">OCT 2020</text></g><g class="xtick"><text text-anchor="start" x="0" y="812" transform="translate(686.19,0) rotate(30,0,802.5)" style="font-family: Arial; font-size: 19px; fill: rgb(0, 0, 0); fill-opacity: 1; white-space: pre;">NOV 2020</text></g><g class="xtick"><text text-anchor="start" x="0" y="812" transform="translate(746.81,0) rotate(30,0,802.5)" style="font-family: Arial; font-size: 19px; fill: rgb(0, 0, 0); fill-opacity: 1; white-space: pre;">DEC 2020</text></g><g class="xtick"><text text-anchor="start" x="0" y="812" transform="translate(807.43,0) rotate(30,0,802.5)" style="font-family: Arial; font-size: 19px; fill: rgb(0, 0, 0); fill-opacity: 1; white-space: pre;">JAN 2021</text></g><g class="xtick"><text text-anchor="start" x="0" y="812" transform="translate(868.05,0) rotate(30,0,802.5)" style="font-family: Arial; font-size: 19px; fill: rgb(0, 0, 0); fill-opacity: 1; white-space: pre;">FEB 2021</text></g><g class="xtick"><text text-anchor="start" x="0" y="812" transform="translate(928.67,0) rotate(30,0,802.5)" style="font-family: Arial; font-size: 19px; fill: rgb(0, 0, 0); fill-opacity: 1; white-space: pre;">MAR 2021</text></g><g class="xtick"><text text-anchor="start" x="0" y="812" transform="translate(989.29,0) rotate(30,0,802.5)" style="font-family: Arial; font-size: 19px; fill: rgb(0, 0, 0); fill-opacity: 1; white-space: pre;">APR 2021</text></g><g class="xtick"><text text-anchor="start" x="0" y="812" transform="translate(1049.9,0) rotate(30,0,802.5)" style="font-family: Arial; font-size: 19px; fill: rgb(0, 0, 0); fill-opacity: 1; white-space: pre;">MAY 2021</text></g><g class="xtick"><text text-anchor="start" x="0" y="812" transform="translate(1110.52,0) rotate(30,0,802.5)" style="font-family: Arial; font-size: 19px; fill: rgb(0, 0, 0); fill-opacity: 1; white-space: pre;">JUN 2021</text></g><g class="xtick"><text text-anchor="start" x="0" y="812" transform="translate(1171.14,0) rotate(30,0,802.5)" style="font-family: Arial; font-size: 19px; fill: rgb(0, 0, 0); fill-opacity: 1; white-space: pre;">JUL 2021</text></g><g class="xtick"><text text-anchor="start" x="0" y="812" transform="translate(1231.76,0) rotate(30,0,802.5)" style="font-family: Arial; font-size: 19px; fill: rgb(0, 0, 0); fill-opacity: 1; white-space: pre;">AUG 2021</text></g><g class="xtick"><text text-anchor="start" x="0" y="812" transform="translate(1292.38,0) rotate(30,0,802.5)" style="font-family: Arial; font-size: 19px; fill: rgb(0, 0, 0); fill-opacity: 1; white-space: pre;">SEPT 2021</text></g><g class="xtick"><text text-anchor="start" x="0" y="812" transform="translate(1353,0) rotate(30,0,802.5)" style="font-family: Arial; font-size: 19px; fill: rgb(0, 0, 0); fill-opacity: 1; white-space: pre;">OCT 2021</text></g></g><g class="yaxislayer-above"><g class="ytick"><text text-anchor="end" x="79" y="6.6499999999999995" transform="translate(0,757.4)" style="font-family: Arial; font-size: 19px; fill: rgb(0, 0, 0); fill-opacity: 1; white-space: pre;">0</text></g><g class="ytick"><text text-anchor="end" x="79" y="6.6499999999999995" transform="translate(0,684.98)" style="font-family: Arial; font-size: 19px; fill: rgb(0, 0, 0); fill-opacity: 1; white-space: pre;">5</text></g><g class="ytick"><text text-anchor="end" x="79" y="6.6499999999999995" transform="translate(0,612.56)" style="font-family: Arial; font-size: 19px; fill: rgb(0, 0, 0); fill-opacity: 1; white-space: pre;">10</text></g><g class="ytick"><text text-anchor="end" x="79" y="6.6499999999999995" transform="translate(0,540.14)" style="font-family: Arial; font-size: 19px; fill: rgb(0, 0, 0); fill-opacity: 1; white-space: pre;">15</text></g><g class="ytick"><text text-anchor="end" x="79" y="6.6499999999999995" transform="translate(0,467.73)" style="font-family: Arial; font-size: 19px; fill: rgb(0, 0, 0); fill-opacity: 1; white-space: pre;">20</text></g><g class="ytick"><text text-anchor="end" x="79" y="6.6499999999999995" transform="translate(0,395.31)" style="font-family: Arial; font-size: 19px; fill: rgb(0, 0, 0); fill-opacity: 1; white-space: pre;">25</text></g><g class="ytick"><text text-anchor="end" x="79" y="6.6499999999999995" transform="translate(0,322.89)" style="font-family: Arial; font-size: 19px; fill: rgb(0, 0, 0); fill-opacity: 1; white-space: pre;">30</text></g><g class="ytick"><text text-anchor="end" x="79" y="6.6499999999999995" transform="translate(0,250.47)" style="font-family: Arial; font-size: 19px; fill: rgb(0, 0, 0); fill-opacity: 1; white-space: pre;">35</text></g><g class="ytick"><text text-anchor="end" x="79" y="6.6499999999999995" transform="translate(0,178.05)" style="font-family: Arial; font-size: 19px; fill: rgb(0, 0, 0); fill-opacity: 1; white-space: pre;">40</text></g><g class="ytick"><text text-anchor="end" x="79" y="6.6499999999999995" transform="translate(0,105.63)" style="font-family: Arial; font-size: 19px; fill: rgb(0, 0, 0); fill-opacity: 1; white-space: pre;">45</text></g></g><g class="overaxes-above"/></g></g><g class="polarlayer"/><g class="ternarylayer"/><g class="geolayer"/><g class="funnelarealayer"/><g class="pielayer"/><g class="treemaplayer"/><g class="sunburstlayer"/><g class="glimages"/><defs id="topdefs-f120e6"><g class="clips"/><clipPath id="legendf120e6"><rect width="403.94" height="404.94" x="0.03" y="0.03"/></clipPath></defs><g class="layer-above"><g class="imagelayer"/><g class="shapelayer"><path data-index="0" fill-rule="evenodd" d="M777.12,792L777.12,100" clip-path="url('#clipf120e6x')" style="opacity: 1; stroke: rgb(0, 128, 0); stroke-opacity: 1; fill: rgb(0, 0, 0); fill-opacity: 0; stroke-dasharray: 18px, 18px; stroke-width: 6px;"/><path data-index="1" fill-rule="evenodd" d="M80,792H807.43V100H80Z" clip-path="url('#clipf120e6x')" style="opacity: 0.25; stroke: rgb(0, 0, 0); stroke-opacity: 0; fill: rgb(0, 0, 0); fill-opacity: 0; stroke-width: 0px;"/><path data-index="2" fill-rule="evenodd" d="M807.43,792H807.43V100H807.43Z" clip-path="url('#clipf120e6x')" style="opacity: 0.15; stroke: rgb(0, 0, 0); stroke-opacity: 0; fill: rgb(0, 0, 0); fill-opacity: 0; stroke-width: 0px;"/></g></g><g class="infolayer"><g class="legend" pointer-events="all" transform="translate(80,912.9200000000001)"><rect class="bg" shape-rendering="crispEdges" style="stroke: rgb(0, 0, 0); stroke-opacity: 1; fill: rgb(255, 255, 255); fill-opacity: 1; stroke-width: 0.03px;" width="403.97" height="404.97" x="0.015" y="0.015"/><g class="scrollbox" transform="" clip-path="url('#legendf120e6')"><g class="groups"><g class="traces" transform="translate(0.03,21.480000000000004)" style="opacity: 1;"><text class="legendtext" text-anchor="start" x="40" y="8.97" style="font-family: Arial; font-size: 23px; fill: rgb(0, 0, 0); fill-opacity: 1; white-space: pre;">Sidewall Cut(s)/Snag(s)</text><g class="layers" style="opacity: 1;"><g class="legendfill"/><g class="legendlines"><path class="js-line" d="M5,0h30" style="fill: none; stroke: rgb(255, 0, 0); stroke-opacity: 1; stroke-width: 2.2px;"/></g><g class="legendsymbols"><g class="legendpoints"/></g></g><rect class="legendtoggle" x="0" y="-16.450000000000003" width="398.328125" height="32.900000000000006" style="fill: rgb(0, 0, 0); fill-opacity: 0;"/></g><g class="traces" transform="translate(0.03,54.38000000000001)" style="opacity: 1;"><text class="legendtext" text-anchor="start" x="40" y="8.97" style="font-family: Arial; font-size: 23px; fill: rgb(0, 0, 0); fill-opacity: 1; white-space: pre;">Run Under-Inflated</text><g class="layers" style="opacity: 1;"><g class="legendfill"/><g class="legendlines"><path class="js-line" d="M5,0h30" style="fill: none; stroke: rgb(255, 165, 0); stroke-opacity: 1; stroke-width: 2.2px;"/></g><g class="legendsymbols"><g class="legendpoints"/></g></g><rect class="legendtoggle" x="0" y="-16.450000000000003" width="398.328125" height="32.900000000000006" style="fill: rgb(0, 0, 0); fill-opacity: 0;"/></g><g class="traces" transform="translate(0.03,87.28000000000002)" style="opacity: 1;"><text class="legendtext" text-anchor="start" x="40" y="8.97" style="font-family: Arial; font-size: 23px; fill: rgb(0, 0, 0); fill-opacity: 1; white-space: pre;">Run to Destruction</text><g class="layers" style="opacity: 1;"><g class="legendfill"/><g class="legendlines"><path class="js-line" d="M5,0h30" style="fill: none; stroke: rgb(0, 0, 255); stroke-opacity: 1; stroke-width: 2.2px;"/></g><g class="legendsymbols"><g class="legendpoints"/></g></g><rect class="legendtoggle" x="0" y="-16.450000000000003" width="398.328125" height="32.900000000000006" style="fill: rgb(0, 0, 0); fill-opacity: 0;"/></g><g class="traces" transform="translate(0.03,120.18000000000002)" style="opacity: 1;"><text class="legendtext" text-anchor="start" x="40" y="8.97" style="font-family: Arial; font-size: 23px; fill: rgb(0, 0, 0); fill-opacity: 1; white-space: pre;">Impact Split(s)</text><g class="layers" style="opacity: 1;"><g class="legendfill"/><g class="legendlines"><path class="js-line" d="M5,0h30" style="fill: none; stroke: rgb(128, 0, 128); stroke-opacity: 1; stroke-width: 2.2px;"/></g><g class="legendsymbols"><g class="legendpoints"/></g></g><rect class="legendtoggle" x="0" y="-16.450000000000003" width="398.328125" height="32.900000000000006" style="fill: rgb(0, 0, 0); fill-opacity: 0;"/></g><g class="traces" transform="translate(0.03,153.08000000000004)" style="opacity: 1;"><text class="legendtext" text-anchor="start" x="40" y="8.97" style="font-family: Arial; font-size: 23px; fill: rgb(0, 0, 0); fill-opacity: 1; white-space: pre;">Pinch Shock</text><g class="layers" style="opacity: 1;"><g class="legendfill"/><g class="legendlines"><path class="js-line" d="M5,0h30" style="fill: none; stroke: rgb(0, 100, 0); stroke-opacity: 1; stroke-width: 2.2px;"/></g><g class="legendsymbols"><g class="legendpoints"/></g></g><rect class="legendtoggle" x="0" y="-16.450000000000003" width="398.328125" height="32.900000000000006" style="fill: rgb(0, 0, 0); fill-opacity: 0;"/></g><g class="traces" transform="translate(0.03,185.98000000000002)" style="opacity: 1;"><text class="legendtext" text-anchor="start" x="40" y="8.97" style="font-family: Arial; font-size: 23px; fill: rgb(0, 0, 0); fill-opacity: 1; white-space: pre;">Rock Drilling</text><g class="layers" style="opacity: 1;"><g class="legendfill"/><g class="legendlines"><path class="js-line" d="M5,0h30" style="fill: none; stroke: rgb(165, 42, 42); stroke-opacity: 1; stroke-dasharray: 3px, 3px; stroke-width: 2.2px;"/></g><g class="legendsymbols"><g class="legendpoints"/></g></g><rect class="legendtoggle" x="0" y="-16.450000000000003" width="398.328125" height="32.900000000000006" style="fill: rgb(0, 0, 0); fill-opacity: 0;"/></g><g class="traces" transform="translate(0.03,218.88000000000005)" style="opacity: 1;"><text class="legendtext" text-anchor="start" x="40" y="8.97" style="font-family: Arial; font-size: 23px; fill: rgb(0, 0, 0); fill-opacity: 1; white-space: pre;">Bead Damage - Mount/Dismount R</text><g class="layers" style="opacity: 1;"><g class="legendfill"/><g class="legendlines"><path class="js-line" d="M5,0h30" style="fill: none; stroke: rgb(255, 165, 0); stroke-opacity: 1; stroke-dasharray: 3px, 3px; stroke-width: 2.2px;"/></g><g class="legendsymbols"><g class="legendpoints"/></g></g><rect class="legendtoggle" x="0" y="-16.450000000000003" width="398.328125" height="32.900000000000006" style="fill: rgb(0, 0, 0); fill-opacity: 0;"/></g><g class="traces" transform="translate(0.03,251.78000000000003)" style="opacity: 1;"><text class="legendtext" text-anchor="start" x="40" y="8.97" style="font-family: Arial; font-size: 23px; fill: rgb(0, 0, 0); fill-opacity: 1; white-space: pre;">Worn Too Far</text><g class="layers" style="opacity: 1;"><g class="legendfill"/><g class="legendlines"><path class="js-line" d="M5,0h30" style="fill: none; stroke: rgb(65, 105, 225); stroke-opacity: 1; stroke-dasharray: 3px, 3px; stroke-width: 2.2px;"/></g><g class="legendsymbols"><g class="legendpoints"/></g></g><rect class="legendtoggle" x="0" y="-16.450000000000003" width="398.328125" height="32.900000000000006" style="fill: rgb(0, 0, 0); fill-opacity: 0;"/></g><g class="traces" transform="translate(0.03,284.68)" style="opacity: 1;"><text class="legendtext" text-anchor="start" x="40" y="8.97" style="font-family: Arial; font-size: 23px; fill: rgb(0, 0, 0); fill-opacity: 1; white-space: pre;">Shoulder Separation</text><g class="layers" style="opacity: 1;"><g class="legendfill"/><g class="legendlines"><path class="js-line" d="M5,0h30" style="fill: none; stroke: rgb(128, 0, 128); stroke-opacity: 1; stroke-dasharray: 3px, 3px; stroke-width: 2.2px;"/></g><g class="legendsymbols"><g class="legendpoints"/></g></g><rect class="legendtoggle" x="0" y="-16.450000000000003" width="398.328125" height="32.900000000000006" style="fill: rgb(0, 0, 0); fill-opacity: 0;"/></g><g class="traces" transform="translate(0.03,317.58)" style="opacity: 1;"><text class="legendtext" text-anchor="start" x="40" y="8.97" style="font-family: Arial; font-size: 23px; fill: rgb(0, 0, 0); fill-opacity: 1; white-space: pre;">Outside of Fleet Specifications</text><g class="layers" style="opacity: 1;"><g class="legendfill"/><g class="legendlines"><path class="js-line" d="M5,0h30" style="fill: none; stroke: rgb(0, 100, 0); stroke-opacity: 1; stroke-dasharray: 3px, 3px; stroke-width: 2.2px;"/></g><g class="legendsymbols"><g class="legendpoints"/></g></g><rect class="legendtoggle" x="0" y="-16.450000000000003" width="398.328125" height="32.900000000000006" style="fill: rgb(0, 0, 0); fill-opacity: 0;"/></g><g class="traces" transform="translate(0.03,350.47999999999996)" style="opacity: 1;"><text class="legendtext" text-anchor="start" x="40" y="8.97" style="font-family: Arial; font-size: 23px; fill: rgb(0, 0, 0); fill-opacity: 1; white-space: pre;">Injuries too Close/Large</text><g class="layers" style="opacity: 1;"><g class="legendfill"/><g class="legendlines"><path class="js-line" d="M5,0h30" style="fill: none; stroke: rgb(105, 105, 105); stroke-opacity: 1; stroke-width: 3px;"/></g><g class="legendsymbols"><g class="legendpoints"/></g></g><rect class="legendtoggle" x="0" y="-16.450000000000003" width="398.328125" height="32.900000000000006" style="fill: rgb(0, 0, 0); fill-opacity: 0;"/></g><g class="traces" transform="translate(0.03,383.37999999999994)" style="opacity: 1;"><text class="legendtext" text-anchor="start" x="40" y="8.97" style="font-family: Arial; font-size: 23px; fill: rgb(0, 0, 0); fill-opacity: 1; white-space: pre;">OTHER NRT CODES</text><g class="layers" style="opacity: 1;"><g class="legendfill"/><g class="legendlines"><path class="js-line" d="M5,0h30" style="fill: none; stroke: rgb(64, 224, 208); stroke-opacity: 1; stroke-width: 2.2px;"/></g><g class="legendsymbols"><g class="legendpoints"/></g></g><rect class="legendtoggle" x="0" y="-16.450000000000003" width="398.328125" height="32.900000000000006" style="fill: rgb(0, 0, 0); fill-opacity: 0;"/></g></g></g><rect class="scrollbar" rx="20" ry="3" width="0" height="0" style="fill: rgb(128, 139, 164); fill-opacity: 1;" x="0" y="0"/></g><g class="g-gtitle"><text class="gtitle" x="722.5" y="50" text-anchor="middle" dy="0em" style="font-family: Arial; font-size: 29px; fill: rgb(0, 0, 0); opacity: 1; font-weight: normal; white-space: pre;"><tspan style="font-weight:bold">SCRAP TREND  2020 - 2021</tspan></text></g><g class="g-xtitle"><text class="xtitle" x="716.5" y="893.87734375" text-anchor="middle" style="font-family: Arial; font-size: 23px; fill: rgb(0, 0, 0); opacity: 1; font-weight: normal; white-space: pre;">Month-Year</text></g><g class="g-ytitle"><text class="ytitle" transform="rotate(-90,25.759375000000006,446)" x="25.759375000000006" y="446" text-anchor="middle" style="font-family: Arial; font-size: 23px; fill: rgb(0, 0, 0); opacity: 1; font-weight: normal; white-space: pre;">NUMBER OF NRT</text></g><g class="annotation" data-index="0" style="opacity: 1;"><g class="annotation-text-g" transform="rotate(0,167,118.5)"><g class="cursor-pointer" transform="translate(80,100)"><rect class="bg" x="0.5" y="0.5" width="173" height="36" style="stroke-width: 1px; stroke: rgb(0, 0, 0); stroke-opacity: 0; fill: rgb(0, 0, 0); fill-opacity: 0;"/><text class="annotation-text" text-anchor="middle" x="87.015625" y="29" style="font-family: Helvetica; font-size: 30px; fill: rgb(0, 0, 0); fill-opacity: 1; white-space: pre;"><tspan style="font-weight:bold">LAST YEAR<tspan style="font-weight:bold"></tspan></tspan></text></g></g></g><g class="annotation" data-index="1" style="opacity: 1;"><g class="annotation-text-g" transform="rotate(0,928.93,118.5)"><g class="cursor-pointer" transform="translate(807,100)"><rect class="bg" x="0.5" y="0.5" width="242" height="36" style="stroke-width: 1px; stroke: rgb(0, 0, 0); stroke-opacity: 0; fill: rgb(0, 0, 0); fill-opacity: 0;"/><text class="annotation-text" text-anchor="middle" x="121.1875" y="29" style="font-family: Helvetica; font-size: 30px; fill: rgb(0, 0, 0); fill-opacity: 1; white-space: pre;"><tspan style="font-weight:bold">CURRENT YEAR<tspan style="font-weight:bold"></tspan></tspan></text></g></g></g></g></svg>